  0
SECTION
  2
HEADER
  9
$ACADVER
  1
AC1014
  9
$HANDSEED
  5
FFFF
  9
$MEASUREMENT
 70
     1
  0
ENDSEC
  0
SECTION
  2
TABLES
  0
TABLE
  2
VPORT
  5
8
330
0
100
AcDbSymbolTable
 70
     4
  0
VPORT
  5
2E
330
8
100
AcDbSymbolTableRecord
100
AcDbViewportTableRecord
  2
*ACTIVE
 70
     0
 10
0.0
 20
0.0
 11
1.0
 21
1.0
 12
210.0
 22
148.5
 13
0.0
 23
0.0
 14
10.0
 24
10.0
 15
10.0
 25
10.0
 16
0.0
 26
0.0
 36
1.0
 17
0.0
 27
0.0
 37
0.0
 40
341.0
 41
1.24
 42
50.0
 43
0.0
 44
0.0
 50
0.0
 51
0.0
 71
     0
 72
   100
 73
     1
 74
     3
 75
     0
 76
     0
 77
     0
 78
     0
  0
ENDTAB
  0
TABLE
  2
LTYPE
  5
5
330
0
100
AcDbSymbolTable
 70
     1
  0
LTYPE
  5
14
330
5
100
AcDbSymbolTableRecord
100
AcDbLinetypeTableRecord
  2
BYBLOCK
 70
     0
  3

 72
    65
 73
     0
 40
0.0
  0
LTYPE
  5
15
330
5
100
AcDbSymbolTableRecord
100
AcDbLinetypeTableRecord
  2
BYLAYER
 70
     0
  3

 72
    65
 73
     0
 40
0.0
  0
LTYPE
  5
16
330
5
100
AcDbSymbolTableRecord
100
AcDbLinetypeTableRecord
  2
CONTINUOUS
 70
     0
  3
Solid line
 72
    65
 73
     0
 40
0.0
  0
ENDTAB
  0
TABLE
  2
LAYER
  5
2
100
AcDbSymbolTable
 70
1
  0
LAYER
  5
50
100
AcDbSymbolTableRecord
100
AcDbLayerTableRecord
  2
0
 70
0
  6
CONTINUOUS
  0
ENDTAB
  0
TABLE
  2
STYLE
  5
3
330
0
100
AcDbSymbolTable
 70
     1
  0
STYLE
  5
11
330
3
100
AcDbSymbolTableRecord
100
AcDbTextStyleTableRecord
  2
STANDARD
 70
     0
 40
0.0
 41
1.0
 50
0.0
 71
     0
 42
2.5
  3
txt
  4

  0
ENDTAB
  0
TABLE
  2
VIEW
  5
6
330
0
100
AcDbSymbolTable
 70
     0
  0
ENDTAB
  0
TABLE
  2
UCS
  5
7
330
0
100
AcDbSymbolTable
 70
     0
  0
ENDTAB
  0
TABLE
  2
APPID
  5
9
330
0
100
AcDbSymbolTable
 70
     2
  0
APPID
  5
12
330
9
100
AcDbSymbolTableRecord
100
AcDbRegAppTableRecord
  2
ACAD
 70
     0
  0
ENDTAB
  0
TABLE
  2
DIMSTYLE
  5
A
330
0
100
AcDbSymbolTable
 70
     1
  0
DIMSTYLE
105
27
330
A
100
AcDbSymbolTableRecord
100
AcDbDimStyleTableRecord
  2
ISO-25
 70
     0
  3

  4

  5

  6

  7

 40
1.0
 41
2.5
 42
0.625
 43
3.75
 44
1.25
 45
0.0
 46
0.0
 47
0.0
 48
0.0
140
2.5
141
2.5
142
0.0
143
0.03937007874016
144
1.0
145
0.0
146
1.0
147
0.625
 71
     0
 72
     0
 73
     0
 74
     0
 75
     0
 76
     0
 77
     1
 78
     8
170
     0
171
     3
172
     1
173
     0
174
     0
175
     0
176
     0
177
     0
178
     0
270
     2
271
     2
272
     2
273
     2
274
     3
340
11
275
     0
280
     0
281
     0
282
     0
283
     0
284
     8
285
     0
286
     0
287
     3
288
     0
  0
ENDTAB
  0
TABLE
  2
BLOCK_RECORD
  5
1
330
0
100
AcDbSymbolTable
 70
     1
  0
BLOCK_RECORD
  5
1F
330
1
100
AcDbSymbolTableRecord
100
AcDbBlockTableRecord
  2
*MODEL_SPACE
  0
BLOCK_RECORD
  5
1B
330
1
100
AcDbSymbolTableRecord
100
AcDbBlockTableRecord
  2
*PAPER_SPACE
  0
ENDTAB
  0
ENDSEC
  0
SECTION
  2
BLOCKS
  0
BLOCK
  5
20
330
1F
100
AcDbEntity
  8
0
100
AcDbBlockBegin
  2
*MODEL_SPACE
 70
     0
 10
0.0
 20
0.0
 30
0.0
  3
*MODEL_SPACE
  1

  0
ENDBLK
  5
21
330
1F
100
AcDbEntity
  8
0
100
AcDbBlockEnd
  0
BLOCK
  5
1C
330
1B
100
AcDbEntity
 67
     1
  8
0
100
AcDbBlockBegin
  2
*PAPER_SPACE
  1

  0
ENDBLK
  5
1D
330
1B
100
AcDbEntity
 67
     1
  8
0
100
AcDbBlockEnd
  0
ENDSEC
  0
SECTION
  2
ENTITIES
  0
LWPOLYLINE
  5
100
100
AcDbEntity
  8
0
 62
7
100
AcDbPolyline
 90
20
 70
1
 10
65.946001
 20
174.249659
 30
0.0
 10
123.946002
 20
174.249659
 30
0.0
 10
123.946002
 20
163.249660
 30
0.0
 10
120.946003
 20
163.249660
 30
0.0
 10
120.946003
 20
153.749663
 30
0.0
 10
123.946002
 20
153.749663
 30
0.0
 10
123.946002
 20
142.749664
 30
0.0
 10
120.946003
 20
142.749664
 30
0.0
 10
120.946003
 20
133.249667
 30
0.0
 10
123.946002
 20
133.249667
 30
0.0
 10
123.946002
 20
122.249668
 30
0.0
 10
65.946001
 20
122.249668
 30
0.0
 10
65.946001
 20
133.249667
 30
0.0
 10
68.946003
 20
133.249667
 30
0.0
 10
68.946003
 20
142.749664
 30
0.0
 10
65.946001
 20
142.749664
 30
0.0
 10
65.946001
 20
153.749663
 30
0.0
 10
68.946003
 20
153.749663
 30
0.0
 10
68.946003
 20
163.249660
 30
0.0
 10
65.946001
 20
163.249660
 30
0.0
  0
LWPOLYLINE
  5
101
100
AcDbEntity
  8
0
 62
7
100
AcDbPolyline
 90
20
 70
1
 10
136.946002
 20
163.249660
 30
0.0
 10
133.946003
 20
163.249660
 30
0.0
 10
133.946003
 20
174.249659
 30
0.0
 10
191.946001
 20
174.249659
 30
0.0
 10
191.946001
 20
163.249660
 30
0.0
 10
188.946002
 20
163.249660
 30
0.0
 10
188.946002
 20
153.749663
 30
0.0
 10
191.946001
 20
153.749663
 30
0.0
 10
191.946001
 20
142.749664
 30
0.0
 10
188.946002
 20
142.749664
 30
0.0
 10
188.946002
 20
133.249667
 30
0.0
 10
191.946001
 20
133.249667
 30
0.0
 10
191.946001
 20
122.249668
 30
0.0
 10
133.946003
 20
122.249668
 30
0.0
 10
133.946003
 20
133.249667
 30
0.0
 10
136.946002
 20
133.249667
 30
0.0
 10
136.946002
 20
142.749664
 30
0.0
 10
133.946003
 20
142.749664
 30
0.0
 10
133.946003
 20
153.749663
 30
0.0
 10
136.946002
 20
153.749663
 30
0.0
  0
LWPOLYLINE
  5
102
100
AcDbEntity
  8
0
 62
7
100
AcDbPolyline
 90
28
 70
1
 10
55.233250
 20
122.789429
 30
0.0
 10
9.233250
 20
122.789429
 30
0.0
 10
9.233250
 20
133.789428
 30
0.0
 10
6.233251
 20
133.789428
 30
0.0
 10
6.233251
 20
143.289425
 30
0.0
 10
9.233250
 20
143.289425
 30
0.0
 10
9.233250
 20
154.289424
 30
0.0
 10
6.233251
 20
154.289424
 30
0.0
 10
6.233251
 20
163.789421
 30
0.0
 10
9.233250
 20
163.789421
 30
0.0
 10
9.233250
 20
174.789420
 30
0.0
 10
18.066584
 20
174.789420
 30
0.0
 10
18.066584
 20
171.789442
 30
0.0
 10
29.066583
 20
171.789442
 30
0.0
 10
29.066583
 20
174.789420
 30
0.0
 10
35.399917
 20
174.789420
 30
0.0
 10
35.399917
 20
171.789442
 30
0.0
 10
46.399916
 20
171.789442
 30
0.0
 10
46.399916
 20
174.789420
 30
0.0
 10
55.233250
 20
174.789420
 30
0.0
 10
55.233250
 20
163.789421
 30
0.0
 10
58.233249
 20
163.789421
 30
0.0
 10
58.233249
 20
154.289424
 30
0.0
 10
55.233250
 20
154.289424
 30
0.0
 10
55.233250
 20
143.289425
 30
0.0
 10
58.233249
 20
143.289425
 30
0.0
 10
58.233249
 20
133.789428
 30
0.0
 10
55.233250
 20
133.789428
 30
0.0
  0
LWPOLYLINE
  5
103
100
AcDbEntity
  8
0
 62
7
100
AcDbPolyline
 90
4
 70
1
 10
30.747570
 20
133.789428
 30
0.0
 10
33.747570
 20
133.789428
 30
0.0
 10
33.747570
 20
143.289425
 30
0.0
 10
30.747570
 20
143.289425
 30
0.0
  0
LWPOLYLINE
  5
104
100
AcDbEntity
  8
0
 62
7
100
AcDbPolyline
 90
4
 70
1
 10
30.747570
 20
154.289424
 30
0.0
 10
33.747570
 20
154.289424
 30
0.0
 10
33.747570
 20
163.789421
 30
0.0
 10
30.747570
 20
163.789421
 30
0.0
  0
LWPOLYLINE
  5
105
100
AcDbEntity
  8
0
 62
7
100
AcDbPolyline
 90
4
 70
1
 10
41.876107
 20
133.789428
 30
0.0
 10
44.876106
 20
133.789428
 30
0.0
 10
44.876106
 20
143.289425
 30
0.0
 10
41.876107
 20
143.289425
 30
0.0
  0
LWPOLYLINE
  5
106
100
AcDbEntity
  8
0
 62
7
100
AcDbPolyline
 90
4
 70
1
 10
41.876107
 20
154.289424
 30
0.0
 10
44.876106
 20
154.289424
 30
0.0
 10
44.876106
 20
163.789421
 30
0.0
 10
41.876107
 20
163.789421
 30
0.0
  0
LWPOLYLINE
  5
107
100
AcDbEntity
  8
0
 62
7
100
AcDbPolyline
 90
4
 70
1
 10
19.590394
 20
133.789428
 30
0.0
 10
22.590393
 20
133.789428
 30
0.0
 10
22.590393
 20
143.289425
 30
0.0
 10
19.590394
 20
143.289425
 30
0.0
  0
LWPOLYLINE
  5
108
100
AcDbEntity
  8
0
 62
7
100
AcDbPolyline
 90
4
 70
1
 10
19.590394
 20
154.289424
 30
0.0
 10
22.590393
 20
154.289424
 30
0.0
 10
22.590393
 20
163.789421
 30
0.0
 10
19.590394
 20
163.789421
 30
0.0
  0
LWPOLYLINE
  5
109
100
AcDbEntity
  8
0
 62
7
100
AcDbPolyline
 90
4
 70
1
 10
239.316609
 20
220.238794
 30
0.0
 10
236.316610
 20
220.238794
 30
0.0
 10
236.316610
 20
210.738797
 30
0.0
 10
239.316609
 20
210.738797
 30
0.0
  0
LWPOLYLINE
  5
10a
100
AcDbEntity
  8
0
 62
7
100
AcDbPolyline
 90
4
 70
1
 10
239.316609
 20
199.738797
 30
0.0
 10
236.316610
 20
199.738797
 30
0.0
 10
236.316610
 20
190.238801
 30
0.0
 10
239.316609
 20
190.238801
 30
0.0
  0
LWPOLYLINE
  5
10b
100
AcDbEntity
  8
0
 62
7
100
AcDbPolyline
 90
4
 70
1
 10
228.188073
 20
220.238794
 30
0.0
 10
225.188074
 20
220.238794
 30
0.0
 10
225.188074
 20
210.738797
 30
0.0
 10
228.188073
 20
210.738797
 30
0.0
  0
LWPOLYLINE
  5
10c
100
AcDbEntity
  8
0
 62
7
100
AcDbPolyline
 90
4
 70
1
 10
228.188073
 20
199.738797
 30
0.0
 10
225.188074
 20
199.738797
 30
0.0
 10
225.188074
 20
190.238801
 30
0.0
 10
228.188073
 20
190.238801
 30
0.0
  0
LWPOLYLINE
  5
10d
100
AcDbEntity
  8
0
 62
7
100
AcDbPolyline
 90
4
 70
1
 10
217.030895
 20
220.238794
 30
0.0
 10
214.030896
 20
220.238794
 30
0.0
 10
214.030896
 20
210.738797
 30
0.0
 10
217.030895
 20
210.738797
 30
0.0
  0
LWPOLYLINE
  5
10e
100
AcDbEntity
  8
0
 62
7
100
AcDbPolyline
 90
4
 70
1
 10
217.030895
 20
199.738797
 30
0.0
 10
214.030896
 20
199.738797
 30
0.0
 10
214.030896
 20
190.238801
 30
0.0
 10
217.030895
 20
190.238801
 30
0.0
  0
LWPOLYLINE
  5
10f
100
AcDbEntity
  8
0
 62
7
100
AcDbPolyline
 90
20
 70
1
 10
249.673745
 20
231.238793
 30
0.0
 10
249.673745
 20
220.238794
 30
0.0
 10
252.673750
 20
220.238794
 30
0.0
 10
252.673750
 20
210.738797
 30
0.0
 10
249.673745
 20
210.738797
 30
0.0
 10
249.673745
 20
199.738797
 30
0.0
 10
252.673750
 20
199.738797
 30
0.0
 10
252.673750
 20
190.238801
 30
0.0
 10
249.673745
 20
190.238801
 30
0.0
 10
249.673745
 20
179.238801
 30
0.0
 10
203.673752
 20
179.238801
 30
0.0
 10
203.673752
 20
190.238801
 30
0.0
 10
200.673753
 20
190.238801
 30
0.0
 10
200.673753
 20
199.738797
 30
0.0
 10
203.673752
 20
199.738797
 30
0.0
 10
203.673752
 20
210.738797
 30
0.0
 10
200.673753
 20
210.738797
 30
0.0
 10
200.673753
 20
220.238794
 30
0.0
 10
203.673752
 20
220.238794
 30
0.0
 10
203.673752
 20
231.238793
 30
0.0
  0
LWPOLYLINE
  5
110
100
AcDbEntity
  8
0
 62
7
100
AcDbPolyline
 90
32
 70
1
 10
195.682637
 20
200.018547
 30
0.0
 10
198.682636
 20
200.018547
 30
0.0
 10
198.682636
 20
190.518550
 30
0.0
 10
195.682637
 20
190.518550
 30
0.0
 10
195.682637
 20
182.518555
 30
0.0
 10
186.937142
 20
182.518555
 30
0.0
 10
186.937142
 20
220.518569
 30
0.0
 10
183.937140
 20
220.518569
 30
0.0
 10
183.937140
 20
182.518555
 30
0.0
 10
172.079997
 20
182.518555
 30
0.0
 10
172.079997
 20
220.518569
 30
0.0
 10
169.079997
 20
220.518569
 30
0.0
 10
169.079997
 20
182.518555
 30
0.0
 10
155.428132
 20
182.518555
 30
0.0
 10
155.428132
 20
220.518569
 30
0.0
 10
152.428133
 20
220.518569
 30
0.0
 10
152.428133
 20
182.518555
 30
0.0
 10
143.682627
 20
182.518555
 30
0.0
 10
143.682627
 20
190.518550
 30
0.0
 10
140.682649
 20
190.518550
 30
0.0
 10
140.682649
 20
200.018547
 30
0.0
 10
143.682627
 20
200.018547
 30
0.0
 10
143.682627
 20
211.018546
 30
0.0
 10
140.682649
 20
211.018546
 30
0.0
 10
140.682649
 20
220.518569
 30
0.0
 10
143.682627
 20
220.518569
 30
0.0
 10
143.682627
 20
231.518568
 30
0.0
 10
195.682637
 20
231.518568
 30
0.0
 10
195.682637
 20
220.518569
 30
0.0
 10
198.682636
 20
220.518569
 30
0.0
 10
198.682636
 20
211.018546
 30
0.0
 10
195.682637
 20
211.018546
 30
0.0
  0
LWPOLYLINE
  5
111
100
AcDbEntity
  8
0
 62
7
100
AcDbPolyline
 90
32
 70
1
 10
129.792767
 20
190.518550
 30
0.0
 10
126.792762
 20
190.518550
 30
0.0
 10
126.792762
 20
182.518555
 30
0.0
 10
118.047278
 20
182.518555
 30
0.0
 10
118.047278
 20
220.518569
 30
0.0
 10
115.047273
 20
220.518569
 30
0.0
 10
115.047273
 20
182.518555
 30
0.0
 10
103.190130
 20
182.518555
 30
0.0
 10
103.190130
 20
220.518569
 30
0.0
 10
100.190125
 20
220.518569
 30
0.0
 10
100.190125
 20
182.518555
 30
0.0
 10
86.538260
 20
182.518555
 30
0.0
 10
86.538260
 20
220.518569
 30
0.0
 10
83.538256
 20
220.518569
 30
0.0
 10
83.538256
 20
182.518555
 30
0.0
 10
74.792771
 20
182.518555
 30
0.0
 10
74.792771
 20
190.518550
 30
0.0
 10
71.792767
 20
190.518550
 30
0.0
 10
71.792767
 20
200.018547
 30
0.0
 10
74.792771
 20
200.018547
 30
0.0
 10
74.792771
 20
211.018546
 30
0.0
 10
71.792767
 20
211.018546
 30
0.0
 10
71.792767
 20
220.518569
 30
0.0
 10
74.792771
 20
220.518569
 30
0.0
 10
74.792771
 20
231.518568
 30
0.0
 10
126.792762
 20
231.518568
 30
0.0
 10
126.792762
 20
220.518569
 30
0.0
 10
129.792767
 20
220.518569
 30
0.0
 10
129.792767
 20
211.018546
 30
0.0
 10
126.792762
 20
211.018546
 30
0.0
 10
126.792762
 20
200.018547
 30
0.0
 10
129.792767
 20
200.018547
 30
0.0
  0
LWPOLYLINE
  5
112
100
AcDbEntity
  8
0
 62
7
100
AcDbPolyline
 90
32
 70
1
 10
8.242138
 20
220.238794
 30
0.0
 10
11.242142
 20
220.238794
 30
0.0
 10
11.242142
 20
228.238815
 30
0.0
 10
19.987627
 20
228.238815
 30
0.0
 10
19.987627
 20
190.238801
 30
0.0
 10
22.987632
 20
190.238801
 30
0.0
 10
22.987632
 20
228.238815
 30
0.0
 10
34.844776
 20
228.238815
 30
0.0
 10
34.844776
 20
190.238801
 30
0.0
 10
37.844780
 20
190.238801
 30
0.0
 10
37.844780
 20
228.238815
 30
0.0
 10
51.496645
 20
228.238815
 30
0.0
 10
51.496645
 20
190.238801
 30
0.0
 10
54.496650
 20
190.238801
 30
0.0
 10
54.496650
 20
228.238815
 30
0.0
 10
63.242134
 20
228.238815
 30
0.0
 10
63.242134
 20
220.238794
 30
0.0
 10
66.242139
 20
220.238794
 30
0.0
 10
66.242139
 20
210.738797
 30
0.0
 10
63.242134
 20
210.738797
 30
0.0
 10
63.242134
 20
199.738797
 30
0.0
 10
66.242139
 20
199.738797
 30
0.0
 10
66.242139
 20
190.238801
 30
0.0
 10
63.242134
 20
190.238801
 30
0.0
 10
63.242134
 20
179.238801
 30
0.0
 10
11.242142
 20
179.238801
 30
0.0
 10
11.242142
 20
190.238801
 30
0.0
 10
8.242138
 20
190.238801
 30
0.0
 10
8.242138
 20
199.738797
 30
0.0
 10
11.242142
 20
199.738797
 30
0.0
 10
11.242142
 20
210.738797
 30
0.0
 10
8.242138
 20
210.738797
 30
0.0
  0
LWPOLYLINE
  5
113
100
AcDbEntity
  8
0
 62
7
100
AcDbPolyline
 90
40
 70
1
 10
226.806977
 20
247.857822
 30
0.0
 10
226.806977
 20
236.857823
 30
0.0
 10
218.738561
 20
236.857823
 30
0.0
 10
218.738561
 20
247.857822
 30
0.0
 10
215.738557
 20
247.857822
 30
0.0
 10
215.738557
 20
236.857823
 30
0.0
 10
207.581399
 20
236.857823
 30
0.0
 10
207.581399
 20
247.857822
 30
0.0
 10
204.581395
 20
247.857822
 30
0.0
 10
204.581395
 20
236.857823
 30
0.0
 10
194.224254
 20
236.857823
 30
0.0
 10
194.224254
 20
247.857822
 30
0.0
 10
191.224249
 20
247.857822
 30
0.0
 10
191.224249
 20
257.357819
 30
0.0
 10
194.224254
 20
257.357819
 30
0.0
 10
194.224254
 20
268.357818
 30
0.0
 10
191.224249
 20
268.357818
 30
0.0
 10
191.224249
 20
277.857815
 30
0.0
 10
194.224254
 20
277.857815
 30
0.0
 10
194.224254
 20
288.857815
 30
0.0
 10
203.057580
 20
288.857815
 30
0.0
 10
203.057580
 20
285.857836
 30
0.0
 10
214.057579
 20
285.857836
 30
0.0
 10
214.057579
 20
288.857815
 30
0.0
 10
220.390910
 20
288.857815
 30
0.0
 10
220.390910
 20
285.857836
 30
0.0
 10
231.390910
 20
285.857836
 30
0.0
 10
231.390910
 20
288.857815
 30
0.0
 10
240.224236
 20
288.857815
 30
0.0
 10
240.224236
 20
277.857815
 30
0.0
 10
243.224240
 20
277.857815
 30
0.0
 10
243.224240
 20
268.357818
 30
0.0
 10
240.224236
 20
268.357818
 30
0.0
 10
240.224236
 20
257.357819
 30
0.0
 10
243.224240
 20
257.357819
 30
0.0
 10
243.224240
 20
247.857822
 30
0.0
 10
240.224236
 20
247.857822
 30
0.0
 10
240.224236
 20
236.857823
 30
0.0
 10
229.806982
 20
236.857823
 30
0.0
 10
229.806982
 20
247.857822
 30
0.0
  0
LWPOLYLINE
  5
114
100
AcDbEntity
  8
0
 62
7
100
AcDbPolyline
 90
40
 70
1
 10
167.867097
 20
236.857823
 30
0.0
 10
167.867097
 20
247.857822
 30
0.0
 10
164.867093
 20
247.857822
 30
0.0
 10
164.867093
 20
236.857823
 30
0.0
 10
156.738563
 20
236.857823
 30
0.0
 10
156.738563
 20
247.857822
 30
0.0
 10
153.738559
 20
247.857822
 30
0.0
 10
153.738559
 20
236.857823
 30
0.0
 10
145.581402
 20
236.857823
 30
0.0
 10
145.581402
 20
247.857822
 30
0.0
 10
142.581397
 20
247.857822
 30
0.0
 10
142.581397
 20
236.857823
 30
0.0
 10
132.224256
 20
236.857823
 30
0.0
 10
132.224256
 20
247.857822
 30
0.0
 10
129.224252
 20
247.857822
 30
0.0
 10
129.224252
 20
257.357819
 30
0.0
 10
132.224256
 20
257.357819
 30
0.0
 10
132.224256
 20
268.357818
 30
0.0
 10
129.224252
 20
268.357818
 30
0.0
 10
129.224252
 20
277.857815
 30
0.0
 10
132.224256
 20
277.857815
 30
0.0
 10
132.224256
 20
288.857815
 30
0.0
 10
141.057582
 20
288.857815
 30
0.0
 10
141.057582
 20
285.857836
 30
0.0
 10
152.057582
 20
285.857836
 30
0.0
 10
152.057582
 20
288.857815
 30
0.0
 10
158.390913
 20
288.857815
 30
0.0
 10
158.390913
 20
285.857836
 30
0.0
 10
169.390912
 20
285.857836
 30
0.0
 10
169.390912
 20
288.857815
 30
0.0
 10
178.224238
 20
288.857815
 30
0.0
 10
178.224238
 20
277.857815
 30
0.0
 10
181.224243
 20
277.857815
 30
0.0
 10
181.224243
 20
268.357818
 30
0.0
 10
178.224238
 20
268.357818
 30
0.0
 10
178.224238
 20
257.357819
 30
0.0
 10
181.224243
 20
257.357819
 30
0.0
 10
181.224243
 20
247.857822
 30
0.0
 10
178.224238
 20
247.857822
 30
0.0
 10
178.224238
 20
236.857823
 30
0.0
  0
LWPOLYLINE
  5
115
100
AcDbEntity
  8
0
 62
7
100
AcDbPolyline
 90
40
 70
1
 10
105.867099
 20
236.857823
 30
0.0
 10
105.867099
 20
247.857822
 30
0.0
 10
102.867095
 20
247.857822
 30
0.0
 10
102.867095
 20
236.857823
 30
0.0
 10
94.738566
 20
236.857823
 30
0.0
 10
94.738566
 20
247.857822
 30
0.0
 10
91.738561
 20
247.857822
 30
0.0
 10
91.738561
 20
236.857823
 30
0.0
 10
83.581404
 20
236.857823
 30
0.0
 10
83.581404
 20
247.857822
 30
0.0
 10
80.581399
 20
247.857822
 30
0.0
 10
80.581399
 20
236.857823
 30
0.0
 10
70.224258
 20
236.857823
 30
0.0
 10
70.224258
 20
247.857822
 30
0.0
 10
67.224254
 20
247.857822
 30
0.0
 10
67.224254
 20
257.357819
 30
0.0
 10
70.224258
 20
257.357819
 30
0.0
 10
70.224258
 20
268.357818
 30
0.0
 10
67.224254
 20
268.357818
 30
0.0
 10
67.224254
 20
277.857815
 30
0.0
 10
70.224258
 20
277.857815
 30
0.0
 10
70.224258
 20
288.857815
 30
0.0
 10
79.057585
 20
288.857815
 30
0.0
 10
79.057585
 20
285.857836
 30
0.0
 10
90.057584
 20
285.857836
 30
0.0
 10
90.057584
 20
288.857815
 30
0.0
 10
96.390915
 20
288.857815
 30
0.0
 10
96.390915
 20
285.857836
 30
0.0
 10
107.390914
 20
285.857836
 30
0.0
 10
107.390914
 20
288.857815
 30
0.0
 10
116.224241
 20
288.857815
 30
0.0
 10
116.224241
 20
277.857815
 30
0.0
 10
119.224245
 20
277.857815
 30
0.0
 10
119.224245
 20
268.357818
 30
0.0
 10
116.224241
 20
268.357818
 30
0.0
 10
116.224241
 20
257.357819
 30
0.0
 10
119.224245
 20
257.357819
 30
0.0
 10
119.224245
 20
247.857822
 30
0.0
 10
116.224241
 20
247.857822
 30
0.0
 10
116.224241
 20
236.857823
 30
0.0
  0
LWPOLYLINE
  5
116
100
AcDbEntity
  8
0
 62
7
100
AcDbPolyline
 90
44
 70
1
 10
57.224247
 20
280.112330
 30
0.0
 10
48.390921
 20
280.112330
 30
0.0
 10
48.390921
 20
277.112325
 30
0.0
 10
57.224247
 20
277.112325
 30
0.0
 10
57.224247
 20
265.255182
 30
0.0
 10
48.390921
 20
265.255182
 30
0.0
 10
48.390921
 20
262.255177
 30
0.0
 10
57.224247
 20
262.255177
 30
0.0
 10
57.224247
 20
248.603312
 30
0.0
 10
48.390921
 20
248.603312
 30
0.0
 10
48.390921
 20
245.603334
 30
0.0
 10
57.224247
 20
245.603334
 30
0.0
 10
57.224247
 20
236.857823
 30
0.0
 10
48.390921
 20
236.857823
 30
0.0
 10
48.390921
 20
233.857818
 30
0.0
 10
37.390922
 20
233.857818
 30
0.0
 10
37.390922
 20
236.857823
 30
0.0
 10
31.057591
 20
236.857823
 30
0.0
 10
31.057591
 20
233.857818
 30
0.0
 10
20.057592
 20
233.857818
 30
0.0
 10
20.057592
 20
236.857823
 30
0.0
 10
11.224240
 20
236.857823
 30
0.0
 10
11.224240
 20
245.603334
 30
0.0
 10
20.057592
 20
245.603334
 30
0.0
 10
20.057592
 20
248.603312
 30
0.0
 10
11.224240
 20
248.603312
 30
0.0
 10
11.224240
 20
262.255177
 30
0.0
 10
20.057592
 20
262.255177
 30
0.0
 10
20.057592
 20
265.255182
 30
0.0
 10
11.224240
 20
265.255182
 30
0.0
 10
11.224240
 20
277.112325
 30
0.0
 10
20.057592
 20
277.112325
 30
0.0
 10
20.057592
 20
280.112330
 30
0.0
 10
11.224240
 20
280.112330
 30
0.0
 10
11.224240
 20
288.857815
 30
0.0
 10
20.057592
 20
288.857815
 30
0.0
 10
20.057592
 20
291.857819
 30
0.0
 10
31.057591
 20
291.857819
 30
0.0
 10
31.057591
 20
288.857815
 30
0.0
 10
37.390922
 20
288.857815
 30
0.0
 10
37.390922
 20
291.857819
 30
0.0
 10
48.390921
 20
291.857819
 30
0.0
 10
48.390921
 20
288.857815
 30
0.0
 10
57.224247
 20
288.857815
 30
0.0
  0
LWPOLYLINE
  5
117
100
AcDbEntity
  8
0
 62
7
100
AcDbPolyline
 90
4
 70
1
 10
31.057591
 20
277.112325
 30
0.0
 10
37.390922
 20
277.112325
 30
0.0
 10
37.390922
 20
280.112330
 30
0.0
 10
31.057591
 20
280.112330
 30
0.0
  0
LWPOLYLINE
  5
118
100
AcDbEntity
  8
0
 62
7
100
AcDbPolyline
 90
4
 70
1
 10
31.057591
 20
262.255177
 30
0.0
 10
37.390922
 20
262.255177
 30
0.0
 10
37.390922
 20
265.255182
 30
0.0
 10
31.057591
 20
265.255182
 30
0.0
  0
LWPOLYLINE
  5
119
100
AcDbEntity
  8
0
 62
7
100
AcDbPolyline
 90
4
 70
1
 10
37.390922
 20
248.603312
 30
0.0
 10
31.057591
 20
248.603312
 30
0.0
 10
31.057591
 20
245.603334
 30
0.0
 10
37.390922
 20
245.603334
 30
0.0
  0
ENDSEC
  0
SECTION
  2
OBJECTS
  0
DICTIONARY
  5
C
330
0
100
AcDbDictionary
  3
ACAD_GROUP
350
D
  3
ACAD_MLINESTYLE
350
17
  0
DICTIONARY
  5
D
330
C
100
AcDbDictionary
  0
DICTIONARY
  5
1A
330
C
100
AcDbDictionary
  0
DICTIONARY
  5
17
330
C
100
AcDbDictionary
  3
STANDARD
350
18
  0
DICTIONARY
  5
19
330
C
100
AcDbDictionary
  0
ENDSEC
  0
EOF
