<?xml version="1.0" encoding="UTF-8" standalone="no"?>
<svg
   xmlns:dc="http://purl.org/dc/elements/1.1/"
   xmlns:cc="http://creativecommons.org/ns#"
   xmlns:rdf="http://www.w3.org/1999/02/22-rdf-syntax-ns#"
   xmlns:svg="http://www.w3.org/2000/svg"
   xmlns="http://www.w3.org/2000/svg"
   id="svg72"
   version="1.1"
   height="300mm"
   width="600mm">
  <metadata
     id="metadata76">
    <rdf:RDF>
      <cc:Work
         rdf:about="">
        <dc:format>image/svg+xml</dc:format>
        <dc:type
           rdf:resource="http://purl.org/dc/dcmitype/StillImage" />
        <dc:title></dc:title>
      </cc:Work>
    </rdf:RDF>
  </metadata>
  <desc
     id="desc2">/Users/andy/Dropbox/MyProjects/erfindergarden/pencil-holder/2D/pencil_holder2D.dxf - scale = 1.000000, origin = (0.000000, 0.000000), method = manual</desc>
  <defs
     id="defs16">
    <marker
       style="overflow:visible"
       refY="0"
       refX="0"
       orient="auto"
       id="DistanceX">
      <path
         id="path4"
         style="stroke:#000000;stroke-width:0.5"
         d="M 3,-3 -3,3 M 0,-5 V 5" />
    </marker>
    <pattern
       y="0"
       x="0"
       width="8"
       patternUnits="userSpaceOnUse"
       id="Hatch"
       height="8">
      <path
         id="path7"
         stroke-width="0.25"
         stroke="#000000"
         linecap="square"
         d="M8 4 l-4,4" />
      <path
         id="path9"
         stroke-width="0.25"
         stroke="#000000"
         linecap="square"
         d="M6 2 l-4,4" />
      <path
         id="path11"
         stroke-width="0.25"
         stroke="#000000"
         linecap="square"
         d="M4 0 l-4,4" />
    </pattern>
    <symbol
       id="*MODEL_SPACE" />
    <symbol
       id="*PAPER_SPACE" />
  </defs>
  <g
     transform="translate(0,11.338618)"
     id="g70">
    <g
       transform="translate(10,-12)"
       id="g929">
      <path
         d="m 249.24473,455.9383 h 219.2126 v 41.5748 h -11.33858 v 35.9055 h 11.33858 v 41.5748 h -11.33858 v 35.9055 h 11.33858 v 41.5748 h -219.2126 v -41.5748 h 11.33859 v -35.9055 h -11.33859 v -41.5748 h 11.33859 v -35.9055 h -11.33859 z"
         style="fill:none;stroke:#000000"
         id="path18" />
      <path
         d="M 517.59119,497.5131 H 506.25261 V 455.9383 H 725.4652 v 41.5748 h -11.33858 v 35.9055 h 11.33858 v 41.5748 h -11.33858 v 35.9055 h 11.33858 v 41.5748 H 506.25261 v -41.5748 h 11.33858 v -35.9055 h -11.33858 v -41.5748 h 11.33858 z"
         style="fill:none;stroke:#000000"
         id="path20" />
      <g
         id="g917"
         transform="translate(0,2.04005)">
        <path
           id="path22"
           style="fill:none;stroke:#000000"
           d="M 208.75559,650.43365 H 34.897323 v -41.5748 H 23.558744 v -35.9055 h 11.338579 v -41.5748 H 23.558744 v -35.9055 h 11.338579 v -41.5748 h 33.385829 v 11.33851 h 41.574798 v -11.33851 h 23.93701 v 11.33851 h 41.5748 v -11.33851 h 33.38583 v 41.5748 h 11.33858 v 35.9055 h -11.33858 v 41.5748 h 11.33858 v 35.9055 h -11.33858 z" />
        <path
           id="path24"
           style="fill:none;stroke:#000000"
           d="m 116.21129,608.85885 h 11.33858 v -35.9055 h -11.33858 z" />
        <path
           id="path26"
           style="fill:none;stroke:#000000"
           d="m 116.21129,531.37855 h 11.33858 v -35.9055 h -11.33858 z" />
        <path
           id="path28"
           style="fill:none;stroke:#000000"
           d="m 158.2719,608.85885 h 11.33858 v -35.9055 H 158.2719 Z" />
        <path
           id="path30"
           style="fill:none;stroke:#000000"
           d="m 158.2719,531.37855 h 11.33858 v -35.9055 H 158.2719 Z" />
        <path
           id="path32"
           style="fill:none;stroke:#000000"
           d="m 74.042434,608.85885 h 11.338579 v -35.9055 H 74.042434 Z" />
        <path
           id="path34"
           style="fill:none;stroke:#000000"
           d="m 74.042434,531.37855 h 11.338579 v -35.9055 H 74.042434 Z" />
      </g>
    </g>
    <path
       id="path36"
       style="fill:none;stroke:#000000"
       d="m 904.50372,282.12109 h -11.33858 v 35.9055 h 11.33858 z" />
    <path
       id="path38"
       style="fill:none;stroke:#000000"
       d="m 904.50372,359.6014 h -11.33858 v 35.90549 h 11.33858 z" />
    <path
       id="path40"
       style="fill:none;stroke:#000000"
       d="m 862.44311,282.12109 h -11.33858 v 35.9055 h 11.33858 z" />
    <path
       id="path42"
       style="fill:none;stroke:#000000"
       d="m 862.44311,359.6014 h -11.33858 v 35.90549 h 11.33858 z" />
    <path
       id="path44"
       style="fill:none;stroke:#000000"
       d="m 820.27425,282.12109 h -11.33858 v 35.9055 h 11.33858 z" />
    <path
       id="path46"
       style="fill:none;stroke:#000000"
       d="m 820.27425,359.6014 h -11.33858 v 35.90549 h 11.33858 z" />
    <path
       id="path48"
       style="fill:none;stroke:#000000"
       d="m 943.6488,240.54629 v 41.5748 h 11.3386 v 35.9055 h -11.3386 v 41.57481 h 11.3386 v 35.90549 H 943.6488 V 437.0817 H 769.79056 V 395.50689 H 758.45198 V 359.6014 h 11.33858 v -41.57481 h -11.33858 v -35.9055 h 11.33858 v -41.5748 z" />
    <path
       id="path50"
       style="fill:none;stroke:#000000"
       d="m 716.33334,359.60148 h 11.33858 v 35.9055 h -11.33858 v 30.23621 H 683.2795 v -143.6221 h -11.33859 v 143.6221 h -44.8144 v -143.6221 h -11.33858 v 143.6221 h -51.5976 v -143.6221 h -11.33858 v 143.6221 h -33.05388 v -30.23621 h -11.3385 v -35.9055 h 11.3385 v -41.5748 h -11.3385 v -35.90559 h 11.3385 v -41.5748 h 196.53547 v 41.5748 h 11.33858 v 35.90559 h -11.33858 z" />
    <path
       id="path52"
       style="fill:none;stroke:#000000"
       d="m 489.01799,395.50698 h -11.3386 v 30.23621 h -33.0538 v -143.6221 h -11.3386 v 143.6221 h -44.8144 v -143.6221 h -11.3386 v 143.6221 h -51.5976 v -143.6221 h -11.3386 v 143.6221 h -33.0538 v -30.23621 h -11.3386 v -35.9055 h 11.3386 v -41.5748 h -11.3386 v -35.90559 h 11.3386 v -41.5748 h 196.5354 v 41.5748 h 11.3386 v 35.90559 h -11.3386 v 41.5748 h 11.3386 z" />
    <path
       id="path54"
       style="fill:none;stroke:#000000"
       d="m 31.151388,270.78259 h 11.338598 v -30.2363 h 33.053801 v 143.6221 h 11.338602 v -143.6221 h 44.814401 v 143.6221 h 11.3386 v -143.6221 h 51.5976 v 143.6221 h 11.3386 v -143.6221 h 33.0538 v 30.2363 h 11.3386 v 35.9055 h -11.3386 v 41.57481 h 11.3386 v 35.90549 h -11.3386 V 425.7432 H 42.489986 V 384.16839 H 31.151388 V 348.2629 H 42.489986 V 306.68809 H 31.151388 Z" />
    <path
       id="path56"
       style="fill:none;stroke:#000000"
       d="m 857.22322,166.39562 v 41.57479 h -30.4948 v -41.57479 h -11.3386 v 41.57479 h -30.8302 v -41.57479 h -11.3386 v 41.57479 h -39.1451 v -41.57479 h -11.3386 v -35.9055 h 11.3386 V 88.915322 h -11.3386 V 53.009818 h 11.3386 V 11.435015 h 33.3858 v 11.338503 h 41.5748 V 11.435015 h 23.937 v 11.338503 h 41.5748 V 11.435015 h 33.3858 v 41.574803 h 11.3386 v 35.905504 h -11.3386 v 41.574798 h 11.3386 v 35.9055 h -11.3386 v 41.57479 h -39.3723 v -41.57479 z" />
    <path
       id="path58"
       style="fill:none;stroke:#000000"
       d="m 638.23786,207.97041 v -41.57479 h -11.3386 v 41.57479 h -30.722 v -41.57479 h -11.3386 v 41.57479 h -30.8302 v -41.57479 h -11.3386 v 41.57479 h -39.1451 v -41.57479 h -11.3386 v -35.9055 h 11.3386 V 88.915322 h -11.3386 V 53.009818 h 11.3386 V 11.435015 h 33.3858 v 11.338503 h 41.5748 V 11.435015 h 23.937 v 11.338503 h 41.5748 V 11.435015 h 33.3858 v 41.574803 h 11.3386 v 35.905504 h -11.3386 v 41.574798 h 11.3386 v 35.9055 h -11.3386 v 41.57479 z" />
    <path
       id="path60"
       style="fill:none;stroke:#000000"
       d="m 407.68664,207.97041 v -41.57479 h -11.3386 v 41.57479 h -30.722 v -41.57479 h -11.3386 v 41.57479 h -30.8302 v -41.57479 h -11.3386 v 41.57479 h -39.1451 v -41.57479 h -11.3386 v -35.9055 h 11.3386 V 88.915322 h -11.3386 V 53.009818 h 11.3386 V 11.435015 h 33.3858 v 11.338503 h 41.5748 V 11.435015 h 23.937 v 11.338503 h 41.5748 V 11.435015 h 33.3858 v 41.574803 h 11.3386 v 35.905504 h -11.3386 v 41.574798 h 11.3386 v 35.9055 h -11.3386 v 41.57479 z" />
    <g
       transform="translate(0,-8)"
       id="g908">
      <path
         d="m 216.28062,63.827414 h -33.3858 v 11.338602 h 33.3858 v 44.814394 h -33.3858 v 11.33861 h 33.3858 v 51.5976 h -33.3858 v 11.3385 h 33.3858 v 33.05389 h -33.3858 v 11.33861 h -41.5748 v -11.33861 h -23.937 v 11.33861 H 75.808222 V 227.30901 H 42.422324 v -33.05389 h 33.385898 v -11.3385 H 42.422324 v -51.5976 H 75.808222 V 119.98041 H 42.422324 V 75.166016 H 75.808222 V 63.827414 H 42.422324 V 30.773613 H 75.808222 V 19.435015 h 41.574798 v 11.338598 h 23.937 V 19.435015 h 41.5748 v 11.338598 h 33.3858 z"
         style="fill:none;stroke:#000000"
         id="path62" />
      <path
         d="m 117.38302,75.166016 h 23.937 V 63.827414 h -23.937 z"
         style="fill:none;stroke:#000000"
         id="path64" />
      <path
         d="m 117.38302,131.31902 h 23.937 v -11.33861 h -23.937 z"
         style="fill:none;stroke:#000000"
         id="path66" />
      <path
         d="m 141.32002,182.91662 h -23.937 v 11.3385 h 23.937 z"
         style="fill:none;stroke:#000000"
         id="path68" />
    </g>
  </g>
</svg>
