  0
SECTION
  2
HEADER
  9
$ACADVER
  1
AC1014
  9
$HANDSEED
  5
FFFF
  9
$MEASUREMENT
 70
     1
  0
ENDSEC
  0
SECTION
  2
TABLES
  0
TABLE
  2
VPORT
  5
8
330
0
100
AcDbSymbolTable
 70
     4
  0
VPORT
  5
2E
330
8
100
AcDbSymbolTableRecord
100
AcDbViewportTableRecord
  2
*ACTIVE
 70
     0
 10
0.0
 20
0.0
 11
1.0
 21
1.0
 12
210.0
 22
148.5
 13
0.0
 23
0.0
 14
10.0
 24
10.0
 15
10.0
 25
10.0
 16
0.0
 26
0.0
 36
1.0
 17
0.0
 27
0.0
 37
0.0
 40
341.0
 41
1.24
 42
50.0
 43
0.0
 44
0.0
 50
0.0
 51
0.0
 71
     0
 72
   100
 73
     1
 74
     3
 75
     0
 76
     0
 77
     0
 78
     0
  0
ENDTAB
  0
TABLE
  2
LTYPE
  5
5
330
0
100
AcDbSymbolTable
 70
     1
  0
LTYPE
  5
14
330
5
100
AcDbSymbolTableRecord
100
AcDbLinetypeTableRecord
  2
BYBLOCK
 70
     0
  3

 72
    65
 73
     0
 40
0.0
  0
LTYPE
  5
15
330
5
100
AcDbSymbolTableRecord
100
AcDbLinetypeTableRecord
  2
BYLAYER
 70
     0
  3

 72
    65
 73
     0
 40
0.0
  0
LTYPE
  5
16
330
5
100
AcDbSymbolTableRecord
100
AcDbLinetypeTableRecord
  2
CONTINUOUS
 70
     0
  3
Solid line
 72
    65
 73
     0
 40
0.0
  0
ENDTAB
  0
TABLE
  2
LAYER
  5
2
100
AcDbSymbolTable
 70
1
  0
LAYER
  5
50
100
AcDbSymbolTableRecord
100
AcDbLayerTableRecord
  2
0
 70
0
  6
CONTINUOUS
  0
ENDTAB
  0
TABLE
  2
STYLE
  5
3
330
0
100
AcDbSymbolTable
 70
     1
  0
STYLE
  5
11
330
3
100
AcDbSymbolTableRecord
100
AcDbTextStyleTableRecord
  2
STANDARD
 70
     0
 40
0.0
 41
1.0
 50
0.0
 71
     0
 42
2.5
  3
txt
  4

  0
ENDTAB
  0
TABLE
  2
VIEW
  5
6
330
0
100
AcDbSymbolTable
 70
     0
  0
ENDTAB
  0
TABLE
  2
UCS
  5
7
330
0
100
AcDbSymbolTable
 70
     0
  0
ENDTAB
  0
TABLE
  2
APPID
  5
9
330
0
100
AcDbSymbolTable
 70
     2
  0
APPID
  5
12
330
9
100
AcDbSymbolTableRecord
100
AcDbRegAppTableRecord
  2
ACAD
 70
     0
  0
ENDTAB
  0
TABLE
  2
DIMSTYLE
  5
A
330
0
100
AcDbSymbolTable
 70
     1
  0
DIMSTYLE
105
27
330
A
100
AcDbSymbolTableRecord
100
AcDbDimStyleTableRecord
  2
ISO-25
 70
     0
  3

  4

  5

  6

  7

 40
1.0
 41
2.5
 42
0.625
 43
3.75
 44
1.25
 45
0.0
 46
0.0
 47
0.0
 48
0.0
140
2.5
141
2.5
142
0.0
143
0.03937007874016
144
1.0
145
0.0
146
1.0
147
0.625
 71
     0
 72
     0
 73
     0
 74
     0
 75
     0
 76
     0
 77
     1
 78
     8
170
     0
171
     3
172
     1
173
     0
174
     0
175
     0
176
     0
177
     0
178
     0
270
     2
271
     2
272
     2
273
     2
274
     3
340
11
275
     0
280
     0
281
     0
282
     0
283
     0
284
     8
285
     0
286
     0
287
     3
288
     0
  0
ENDTAB
  0
TABLE
  2
BLOCK_RECORD
  5
1
330
0
100
AcDbSymbolTable
 70
     1
  0
BLOCK_RECORD
  5
1F
330
1
100
AcDbSymbolTableRecord
100
AcDbBlockTableRecord
  2
*MODEL_SPACE
  0
BLOCK_RECORD
  5
1B
330
1
100
AcDbSymbolTableRecord
100
AcDbBlockTableRecord
  2
*PAPER_SPACE
  0
ENDTAB
  0
ENDSEC
  0
SECTION
  2
BLOCKS
  0
BLOCK
  5
20
330
1F
100
AcDbEntity
  8
0
100
AcDbBlockBegin
  2
*MODEL_SPACE
 70
     0
 10
0.0
 20
0.0
 30
0.0
  3
*MODEL_SPACE
  1

  0
ENDBLK
  5
21
330
1F
100
AcDbEntity
  8
0
100
AcDbBlockEnd
  0
BLOCK
  5
1C
330
1B
100
AcDbEntity
 67
     1
  8
0
100
AcDbBlockBegin
  2
*PAPER_SPACE
  1

  0
ENDBLK
  5
1D
330
1B
100
AcDbEntity
 67
     1
  8
0
100
AcDbBlockEnd
  0
ENDSEC
  0
SECTION
  2
ENTITIES
  0
LWPOLYLINE
  5
100
100
AcDbEntity
  8
0
 62
7
100
AcDbPolyline
 90
20
 70
1
 10
73.164624
 20
191.510736
 30
0.0
 10
135.031291
 20
191.510736
 30
0.0
 10
135.031291
 20
179.777404
 30
0.0
 10
131.831292
 20
179.777404
 30
0.0
 10
131.831292
 20
169.644074
 30
0.0
 10
135.031291
 20
169.644074
 30
0.0
 10
135.031291
 20
157.910742
 30
0.0
 10
131.831292
 20
157.910742
 30
0.0
 10
131.831292
 20
147.777412
 30
0.0
 10
135.031291
 20
147.777412
 30
0.0
 10
135.031291
 20
136.044079
 30
0.0
 10
73.164624
 20
136.044079
 30
0.0
 10
73.164624
 20
147.777412
 30
0.0
 10
76.364626
 20
147.777412
 30
0.0
 10
76.364626
 20
157.910742
 30
0.0
 10
73.164624
 20
157.910742
 30
0.0
 10
73.164624
 20
169.644074
 30
0.0
 10
76.364626
 20
169.644074
 30
0.0
 10
76.364626
 20
179.777404
 30
0.0
 10
73.164624
 20
179.777404
 30
0.0
  0
LWPOLYLINE
  5
101
100
AcDbEntity
  8
0
 62
7
100
AcDbPolyline
 90
20
 70
1
 10
148.897958
 20
179.777404
 30
0.0
 10
145.697959
 20
179.777404
 30
0.0
 10
145.697959
 20
191.510736
 30
0.0
 10
207.564623
 20
191.510736
 30
0.0
 10
207.564623
 20
179.777404
 30
0.0
 10
204.364624
 20
179.777404
 30
0.0
 10
204.364624
 20
169.644074
 30
0.0
 10
207.564623
 20
169.644074
 30
0.0
 10
207.564623
 20
157.910742
 30
0.0
 10
204.364624
 20
157.910742
 30
0.0
 10
204.364624
 20
147.777412
 30
0.0
 10
207.564623
 20
147.777412
 30
0.0
 10
207.564623
 20
136.044079
 30
0.0
 10
145.697959
 20
136.044079
 30
0.0
 10
145.697959
 20
147.777412
 30
0.0
 10
148.897958
 20
147.777412
 30
0.0
 10
148.897958
 20
157.910742
 30
0.0
 10
145.697959
 20
157.910742
 30
0.0
 10
145.697959
 20
169.644074
 30
0.0
 10
148.897958
 20
169.644074
 30
0.0
  0
LWPOLYLINE
  5
102
100
AcDbEntity
  8
0
 62
7
100
AcDbPolyline
 90
28
 70
1
 10
61.737689
 20
136.044079
 30
0.0
 10
12.671022
 20
136.044079
 30
0.0
 10
12.671022
 20
147.777412
 30
0.0
 10
9.471023
 20
147.777412
 30
0.0
 10
9.471023
 20
157.910742
 30
0.0
 10
12.671022
 20
157.910742
 30
0.0
 10
12.671022
 20
169.644074
 30
0.0
 10
9.471023
 20
169.644074
 30
0.0
 10
9.471023
 20
179.777404
 30
0.0
 10
12.671022
 20
179.777404
 30
0.0
 10
12.671022
 20
191.510736
 30
0.0
 10
22.093245
 20
191.510736
 30
0.0
 10
22.093245
 20
188.310757
 30
0.0
 10
33.826577
 20
188.310757
 30
0.0
 10
33.826577
 20
191.510736
 30
0.0
 10
40.582133
 20
191.510736
 30
0.0
 10
40.582133
 20
188.310757
 30
0.0
 10
52.315466
 20
188.310757
 30
0.0
 10
52.315466
 20
191.510736
 30
0.0
 10
61.737689
 20
191.510736
 30
0.0
 10
61.737689
 20
179.777404
 30
0.0
 10
64.937688
 20
179.777404
 30
0.0
 10
64.937688
 20
169.644074
 30
0.0
 10
61.737689
 20
169.644074
 30
0.0
 10
61.737689
 20
157.910742
 30
0.0
 10
64.937688
 20
157.910742
 30
0.0
 10
64.937688
 20
147.777412
 30
0.0
 10
61.737689
 20
147.777412
 30
0.0
  0
LWPOLYLINE
  5
103
100
AcDbEntity
  8
0
 62
7
100
AcDbPolyline
 90
4
 70
1
 10
35.619631
 20
147.777412
 30
0.0
 10
38.819630
 20
147.777412
 30
0.0
 10
38.819630
 20
157.910742
 30
0.0
 10
35.619631
 20
157.910742
 30
0.0
  0
LWPOLYLINE
  5
104
100
AcDbEntity
  8
0
 62
7
100
AcDbPolyline
 90
4
 70
1
 10
35.619631
 20
169.644074
 30
0.0
 10
38.819630
 20
169.644074
 30
0.0
 10
38.819630
 20
179.777404
 30
0.0
 10
35.619631
 20
179.777404
 30
0.0
  0
LWPOLYLINE
  5
105
100
AcDbEntity
  8
0
 62
7
100
AcDbPolyline
 90
4
 70
1
 10
47.490070
 20
147.777412
 30
0.0
 10
50.690069
 20
147.777412
 30
0.0
 10
50.690069
 20
157.910742
 30
0.0
 10
47.490070
 20
157.910742
 30
0.0
  0
LWPOLYLINE
  5
106
100
AcDbEntity
  8
0
 62
7
100
AcDbPolyline
 90
4
 70
1
 10
47.490070
 20
169.644074
 30
0.0
 10
50.690069
 20
169.644074
 30
0.0
 10
50.690069
 20
179.777404
 30
0.0
 10
47.490070
 20
179.777404
 30
0.0
  0
LWPOLYLINE
  5
107
100
AcDbEntity
  8
0
 62
7
100
AcDbPolyline
 90
4
 70
1
 10
23.718642
 20
147.777412
 30
0.0
 10
26.918641
 20
147.777412
 30
0.0
 10
26.918641
 20
157.910742
 30
0.0
 10
23.718642
 20
157.910742
 30
0.0
  0
LWPOLYLINE
  5
108
100
AcDbEntity
  8
0
 62
7
100
AcDbPolyline
 90
4
 70
1
 10
23.718642
 20
169.644074
 30
0.0
 10
26.918641
 20
169.644074
 30
0.0
 10
26.918641
 20
179.777404
 30
0.0
 10
23.718642
 20
179.777404
 30
0.0
  0
LWPOLYLINE
  5
109
100
AcDbEntity
  8
0
 62
7
100
AcDbPolyline
 90
4
 70
1
 10
255.271050
 20
237.179149
 30
0.0
 10
252.071051
 20
237.179149
 30
0.0
 10
252.071051
 20
227.045819
 30
0.0
 10
255.271050
 20
227.045819
 30
0.0
  0
LWPOLYLINE
  5
10a
100
AcDbEntity
  8
0
 62
7
100
AcDbPolyline
 90
4
 70
1
 10
255.271050
 20
215.312484
 30
0.0
 10
252.071051
 20
215.312484
 30
0.0
 10
252.071051
 20
205.179157
 30
0.0
 10
255.271050
 20
205.179157
 30
0.0
  0
LWPOLYLINE
  5
10b
100
AcDbEntity
  8
0
 62
7
100
AcDbPolyline
 90
4
 70
1
 10
243.400611
 20
237.179149
 30
0.0
 10
240.200612
 20
237.179149
 30
0.0
 10
240.200612
 20
227.045819
 30
0.0
 10
243.400611
 20
227.045819
 30
0.0
  0
LWPOLYLINE
  5
10c
100
AcDbEntity
  8
0
 62
7
100
AcDbPolyline
 90
4
 70
1
 10
243.400611
 20
215.312484
 30
0.0
 10
240.200612
 20
215.312484
 30
0.0
 10
240.200612
 20
205.179157
 30
0.0
 10
243.400611
 20
205.179157
 30
0.0
  0
LWPOLYLINE
  5
10d
100
AcDbEntity
  8
0
 62
7
100
AcDbPolyline
 90
4
 70
1
 10
231.499622
 20
237.179149
 30
0.0
 10
228.299622
 20
237.179149
 30
0.0
 10
228.299622
 20
227.045819
 30
0.0
 10
231.499622
 20
227.045819
 30
0.0
  0
LWPOLYLINE
  5
10e
100
AcDbEntity
  8
0
 62
7
100
AcDbPolyline
 90
4
 70
1
 10
231.499622
 20
215.312484
 30
0.0
 10
228.299622
 20
215.312484
 30
0.0
 10
228.299622
 20
205.179157
 30
0.0
 10
231.499622
 20
205.179157
 30
0.0
  0
LWPOLYLINE
  5
10f
100
AcDbEntity
  8
0
 62
7
100
AcDbPolyline
 90
20
 70
1
 10
266.318661
 20
248.912482
 30
0.0
 10
266.318661
 20
237.179149
 30
0.0
 10
269.518666
 20
237.179149
 30
0.0
 10
269.518666
 20
227.045819
 30
0.0
 10
266.318661
 20
227.045819
 30
0.0
 10
266.318661
 20
215.312484
 30
0.0
 10
269.518666
 20
215.312484
 30
0.0
 10
269.518666
 20
205.179157
 30
0.0
 10
266.318661
 20
205.179157
 30
0.0
 10
266.318661
 20
193.445821
 30
0.0
 10
217.252002
 20
193.445821
 30
0.0
 10
217.252002
 20
205.179157
 30
0.0
 10
214.052003
 20
205.179157
 30
0.0
 10
214.052003
 20
215.312484
 30
0.0
 10
217.252002
 20
215.312484
 30
0.0
 10
217.252002
 20
227.045819
 30
0.0
 10
214.052003
 20
227.045819
 30
0.0
 10
214.052003
 20
237.179149
 30
0.0
 10
217.252002
 20
237.179149
 30
0.0
 10
217.252002
 20
248.912482
 30
0.0
  0
LWPOLYLINE
  5
110
100
AcDbEntity
  8
0
 62
7
100
AcDbPolyline
 90
32
 70
1
 10
202.165187
 20
215.312461
 30
0.0
 10
205.365186
 20
215.312461
 30
0.0
 10
205.365186
 20
205.179131
 30
0.0
 10
202.165187
 20
205.179131
 30
0.0
 10
202.165187
 20
196.645801
 30
0.0
 10
192.836659
 20
196.645801
 30
0.0
 10
192.836659
 20
237.179149
 30
0.0
 10
189.636657
 20
237.179149
 30
0.0
 10
189.636657
 20
196.645801
 30
0.0
 10
176.989037
 20
196.645801
 30
0.0
 10
176.989037
 20
237.179149
 30
0.0
 10
173.789038
 20
237.179149
 30
0.0
 10
173.789038
 20
196.645801
 30
0.0
 10
159.227049
 20
196.645801
 30
0.0
 10
159.227049
 20
237.179149
 30
0.0
 10
156.027049
 20
237.179149
 30
0.0
 10
156.027049
 20
196.645801
 30
0.0
 10
146.698510
 20
196.645801
 30
0.0
 10
146.698510
 20
205.179131
 30
0.0
 10
143.498533
 20
205.179131
 30
0.0
 10
143.498533
 20
215.312461
 30
0.0
 10
146.698510
 20
215.312461
 30
0.0
 10
146.698510
 20
227.045794
 30
0.0
 10
143.498533
 20
227.045794
 30
0.0
 10
143.498533
 20
237.179149
 30
0.0
 10
146.698510
 20
237.179149
 30
0.0
 10
146.698510
 20
248.912482
 30
0.0
 10
202.165187
 20
248.912482
 30
0.0
 10
202.165187
 20
237.179149
 30
0.0
 10
205.365186
 20
237.179149
 30
0.0
 10
205.365186
 20
227.045794
 30
0.0
 10
202.165187
 20
227.045794
 30
0.0
  0
LWPOLYLINE
  5
111
100
AcDbEntity
  8
0
 62
7
100
AcDbPolyline
 90
32
 70
1
 10
138.011744
 20
205.179131
 30
0.0
 10
134.811739
 20
205.179131
 30
0.0
 10
134.811739
 20
196.645801
 30
0.0
 10
125.483222
 20
196.645801
 30
0.0
 10
125.483222
 20
237.179149
 30
0.0
 10
122.283217
 20
237.179149
 30
0.0
 10
122.283217
 20
196.645801
 30
0.0
 10
109.635598
 20
196.645801
 30
0.0
 10
109.635598
 20
237.179149
 30
0.0
 10
106.435593
 20
237.179149
 30
0.0
 10
106.435593
 20
196.645801
 30
0.0
 10
91.873603
 20
196.645801
 30
0.0
 10
91.873603
 20
237.179149
 30
0.0
 10
88.673599
 20
237.179149
 30
0.0
 10
88.673599
 20
196.645801
 30
0.0
 10
79.345082
 20
196.645801
 30
0.0
 10
79.345082
 20
205.179131
 30
0.0
 10
76.145077
 20
205.179131
 30
0.0
 10
76.145077
 20
215.312461
 30
0.0
 10
79.345082
 20
215.312461
 30
0.0
 10
79.345082
 20
227.045794
 30
0.0
 10
76.145077
 20
227.045794
 30
0.0
 10
76.145077
 20
237.179149
 30
0.0
 10
79.345082
 20
237.179149
 30
0.0
 10
79.345082
 20
248.912482
 30
0.0
 10
134.811739
 20
248.912482
 30
0.0
 10
134.811739
 20
237.179149
 30
0.0
 10
138.011744
 20
237.179149
 30
0.0
 10
138.011744
 20
227.045794
 30
0.0
 10
134.811739
 20
227.045794
 30
0.0
 10
134.811739
 20
215.312461
 30
0.0
 10
138.011744
 20
215.312461
 30
0.0
  0
LWPOLYLINE
  5
112
100
AcDbEntity
  8
0
 62
7
100
AcDbPolyline
 90
32
 70
1
 10
8.791614
 20
240.379126
 30
0.0
 10
11.991618
 20
240.379126
 30
0.0
 10
11.991618
 20
248.912482
 30
0.0
 10
21.320135
 20
248.912482
 30
0.0
 10
21.320135
 20
208.379133
 30
0.0
 10
24.520141
 20
208.379133
 30
0.0
 10
24.520141
 20
248.912482
 30
0.0
 10
37.167761
 20
248.912482
 30
0.0
 10
37.167761
 20
208.379133
 30
0.0
 10
40.367766
 20
208.379133
 30
0.0
 10
40.367766
 20
248.912482
 30
0.0
 10
54.929755
 20
248.912482
 30
0.0
 10
54.929755
 20
208.379133
 30
0.0
 10
58.129760
 20
208.379133
 30
0.0
 10
58.129760
 20
248.912482
 30
0.0
 10
67.458277
 20
248.912482
 30
0.0
 10
67.458277
 20
240.379126
 30
0.0
 10
70.658282
 20
240.379126
 30
0.0
 10
70.658282
 20
230.245796
 30
0.0
 10
67.458277
 20
230.245796
 30
0.0
 10
67.458277
 20
218.512460
 30
0.0
 10
70.658282
 20
218.512460
 30
0.0
 10
70.658282
 20
208.379133
 30
0.0
 10
67.458277
 20
208.379133
 30
0.0
 10
67.458277
 20
196.645798
 30
0.0
 10
11.991618
 20
196.645798
 30
0.0
 10
11.991618
 20
208.379133
 30
0.0
 10
8.791614
 20
208.379133
 30
0.0
 10
8.791614
 20
218.512460
 30
0.0
 10
11.991618
 20
218.512460
 30
0.0
 10
11.991618
 20
230.245796
 30
0.0
 10
8.791614
 20
230.245796
 30
0.0
  0
LWPOLYLINE
  5
113
100
AcDbEntity
  8
0
 62
7
100
AcDbPolyline
 90
40
 70
1
 10
241.927442
 20
269.839448
 30
0.0
 10
241.927442
 20
258.106119
 30
0.0
 10
233.321132
 20
258.106119
 30
0.0
 10
233.321132
 20
269.839448
 30
0.0
 10
230.121127
 20
269.839448
 30
0.0
 10
230.121127
 20
258.106119
 30
0.0
 10
221.420159
 20
258.106119
 30
0.0
 10
221.420159
 20
269.839448
 30
0.0
 10
218.220155
 20
269.839448
 30
0.0
 10
218.220155
 20
258.106119
 30
0.0
 10
207.172537
 20
258.106119
 30
0.0
 10
207.172537
 20
269.839448
 30
0.0
 10
203.972533
 20
269.839448
 30
0.0
 10
203.972533
 20
279.972778
 30
0.0
 10
207.172537
 20
279.972778
 30
0.0
 10
207.172537
 20
291.706110
 30
0.0
 10
203.972533
 20
291.706110
 30
0.0
 10
203.972533
 20
301.839441
 30
0.0
 10
207.172537
 20
301.839441
 30
0.0
 10
207.172537
 20
313.572775
 30
0.0
 10
216.594752
 20
313.572775
 30
0.0
 10
216.594752
 20
310.372797
 30
0.0
 10
228.328085
 20
310.372797
 30
0.0
 10
228.328085
 20
313.572775
 30
0.0
 10
235.083638
 20
313.572775
 30
0.0
 10
235.083638
 20
310.372797
 30
0.0
 10
246.816970
 20
310.372797
 30
0.0
 10
246.816970
 20
313.572775
 30
0.0
 10
256.239185
 20
313.572775
 30
0.0
 10
256.239185
 20
301.839441
 30
0.0
 10
259.439190
 20
301.839441
 30
0.0
 10
259.439190
 20
291.706110
 30
0.0
 10
256.239185
 20
291.706110
 30
0.0
 10
256.239185
 20
279.972778
 30
0.0
 10
259.439190
 20
279.972778
 30
0.0
 10
259.439190
 20
269.839448
 30
0.0
 10
256.239185
 20
269.839448
 30
0.0
 10
256.239185
 20
258.106119
 30
0.0
 10
245.127447
 20
258.106119
 30
0.0
 10
245.127447
 20
269.839448
 30
0.0
  0
LWPOLYLINE
  5
114
100
AcDbEntity
  8
0
 62
7
100
AcDbPolyline
 90
40
 70
1
 10
180.124907
 20
258.106119
 30
0.0
 10
180.124907
 20
269.839448
 30
0.0
 10
176.924902
 20
269.839448
 30
0.0
 10
176.924902
 20
258.106119
 30
0.0
 10
168.254471
 20
258.106119
 30
0.0
 10
168.254471
 20
269.839448
 30
0.0
 10
165.054466
 20
269.839448
 30
0.0
 10
165.054466
 20
258.106119
 30
0.0
 10
156.353499
 20
258.106119
 30
0.0
 10
156.353499
 20
269.839448
 30
0.0
 10
153.153494
 20
269.839448
 30
0.0
 10
153.153494
 20
258.106119
 30
0.0
 10
142.105877
 20
258.106119
 30
0.0
 10
142.105877
 20
269.839448
 30
0.0
 10
138.905872
 20
269.839448
 30
0.0
 10
138.905872
 20
279.972778
 30
0.0
 10
142.105877
 20
279.972778
 30
0.0
 10
142.105877
 20
291.706110
 30
0.0
 10
138.905872
 20
291.706110
 30
0.0
 10
138.905872
 20
301.839441
 30
0.0
 10
142.105877
 20
301.839441
 30
0.0
 10
142.105877
 20
313.572775
 30
0.0
 10
151.528091
 20
313.572775
 30
0.0
 10
151.528091
 20
310.372797
 30
0.0
 10
163.261424
 20
310.372797
 30
0.0
 10
163.261424
 20
313.572775
 30
0.0
 10
170.016977
 20
313.572775
 30
0.0
 10
170.016977
 20
310.372797
 30
0.0
 10
181.750310
 20
310.372797
 30
0.0
 10
181.750310
 20
313.572775
 30
0.0
 10
191.172524
 20
313.572775
 30
0.0
 10
191.172524
 20
301.839441
 30
0.0
 10
194.372529
 20
301.839441
 30
0.0
 10
194.372529
 20
291.706110
 30
0.0
 10
191.172524
 20
291.706110
 30
0.0
 10
191.172524
 20
279.972778
 30
0.0
 10
194.372529
 20
279.972778
 30
0.0
 10
194.372529
 20
269.839448
 30
0.0
 10
191.172524
 20
269.839448
 30
0.0
 10
191.172524
 20
258.106119
 30
0.0
  0
LWPOLYLINE
  5
115
100
AcDbEntity
  8
0
 62
7
100
AcDbPolyline
 90
40
 70
1
 10
115.058230
 20
258.106119
 30
0.0
 10
115.058230
 20
269.839448
 30
0.0
 10
111.858225
 20
269.839448
 30
0.0
 10
111.858225
 20
258.106119
 30
0.0
 10
103.187794
 20
258.106119
 30
0.0
 10
103.187794
 20
269.839448
 30
0.0
 10
99.987789
 20
269.839448
 30
0.0
 10
99.987789
 20
258.106119
 30
0.0
 10
91.286821
 20
258.106119
 30
0.0
 10
91.286821
 20
269.839448
 30
0.0
 10
88.086816
 20
269.839448
 30
0.0
 10
88.086816
 20
258.106119
 30
0.0
 10
77.039199
 20
258.106119
 30
0.0
 10
77.039199
 20
269.839448
 30
0.0
 10
73.839194
 20
269.839448
 30
0.0
 10
73.839194
 20
279.972778
 30
0.0
 10
77.039199
 20
279.972778
 30
0.0
 10
77.039199
 20
291.706110
 30
0.0
 10
73.839194
 20
291.706110
 30
0.0
 10
73.839194
 20
301.839441
 30
0.0
 10
77.039199
 20
301.839441
 30
0.0
 10
77.039199
 20
313.572775
 30
0.0
 10
86.461414
 20
313.572775
 30
0.0
 10
86.461414
 20
310.372797
 30
0.0
 10
98.194746
 20
310.372797
 30
0.0
 10
98.194746
 20
313.572775
 30
0.0
 10
104.950300
 20
313.572775
 30
0.0
 10
104.950300
 20
310.372797
 30
0.0
 10
116.683632
 20
310.372797
 30
0.0
 10
116.683632
 20
313.572775
 30
0.0
 10
126.105847
 20
313.572775
 30
0.0
 10
126.105847
 20
301.839441
 30
0.0
 10
129.305852
 20
301.839441
 30
0.0
 10
129.305852
 20
291.706110
 30
0.0
 10
126.105847
 20
291.706110
 30
0.0
 10
126.105847
 20
279.972778
 30
0.0
 10
129.305852
 20
279.972778
 30
0.0
 10
129.305852
 20
269.839448
 30
0.0
 10
126.105847
 20
269.839448
 30
0.0
 10
126.105847
 20
258.106119
 30
0.0
  0
LWPOLYLINE
  5
116
100
AcDbEntity
  8
0
 62
7
100
AcDbPolyline
 90
44
 70
1
 10
61.039197
 20
301.044253
 30
0.0
 10
51.616983
 20
301.044253
 30
0.0
 10
51.616983
 20
297.844248
 30
0.0
 10
61.039197
 20
297.844248
 30
0.0
 10
61.039197
 20
285.196630
 30
0.0
 10
51.616983
 20
285.196630
 30
0.0
 10
51.616983
 20
281.996622
 30
0.0
 10
61.039197
 20
281.996622
 30
0.0
 10
61.039197
 20
267.434633
 30
0.0
 10
51.616983
 20
267.434633
 30
0.0
 10
51.616983
 20
264.234656
 30
0.0
 10
61.039197
 20
264.234656
 30
0.0
 10
61.039197
 20
254.906114
 30
0.0
 10
51.616983
 20
254.906114
 30
0.0
 10
51.616983
 20
251.706106
 30
0.0
 10
39.883650
 20
251.706106
 30
0.0
 10
39.883650
 20
254.906114
 30
0.0
 10
33.128097
 20
254.906114
 30
0.0
 10
33.128097
 20
251.706106
 30
0.0
 10
21.394765
 20
251.706106
 30
0.0
 10
21.394765
 20
254.906114
 30
0.0
 10
11.972523
 20
254.906114
 30
0.0
 10
11.972523
 20
264.234656
 30
0.0
 10
21.394765
 20
264.234656
 30
0.0
 10
21.394765
 20
267.434633
 30
0.0
 10
11.972523
 20
267.434633
 30
0.0
 10
11.972523
 20
281.996622
 30
0.0
 10
21.394765
 20
281.996622
 30
0.0
 10
21.394765
 20
285.196630
 30
0.0
 10
11.972523
 20
285.196630
 30
0.0
 10
11.972523
 20
297.844248
 30
0.0
 10
21.394765
 20
297.844248
 30
0.0
 10
21.394765
 20
301.044253
 30
0.0
 10
11.972523
 20
301.044253
 30
0.0
 10
11.972523
 20
310.372770
 30
0.0
 10
21.394765
 20
310.372770
 30
0.0
 10
21.394765
 20
313.572775
 30
0.0
 10
33.128097
 20
313.572775
 30
0.0
 10
33.128097
 20
310.372770
 30
0.0
 10
39.883650
 20
310.372770
 30
0.0
 10
39.883650
 20
313.572775
 30
0.0
 10
51.616983
 20
313.572775
 30
0.0
 10
51.616983
 20
310.372770
 30
0.0
 10
61.039197
 20
310.372770
 30
0.0
  0
LWPOLYLINE
  5
117
100
AcDbEntity
  8
0
 62
7
100
AcDbPolyline
 90
4
 70
1
 10
33.128097
 20
297.844248
 30
0.0
 10
39.883650
 20
297.844248
 30
0.0
 10
39.883650
 20
301.044253
 30
0.0
 10
33.128097
 20
301.044253
 30
0.0
  0
LWPOLYLINE
  5
118
100
AcDbEntity
  8
0
 62
7
100
AcDbPolyline
 90
4
 70
1
 10
33.128097
 20
281.996622
 30
0.0
 10
39.883650
 20
281.996622
 30
0.0
 10
39.883650
 20
285.196630
 30
0.0
 10
33.128097
 20
285.196630
 30
0.0
  0
LWPOLYLINE
  5
119
100
AcDbEntity
  8
0
 62
7
100
AcDbPolyline
 90
4
 70
1
 10
39.883650
 20
267.434633
 30
0.0
 10
33.128097
 20
267.434633
 30
0.0
 10
33.128097
 20
264.234656
 30
0.0
 10
39.883650
 20
264.234656
 30
0.0
  0
ENDSEC
  0
SECTION
  2
OBJECTS
  0
DICTIONARY
  5
C
330
0
100
AcDbDictionary
  3
ACAD_GROUP
350
D
  3
ACAD_MLINESTYLE
350
17
  0
DICTIONARY
  5
D
330
C
100
AcDbDictionary
  0
DICTIONARY
  5
1A
330
C
100
AcDbDictionary
  0
DICTIONARY
  5
17
330
C
100
AcDbDictionary
  3
STANDARD
350
18
  0
DICTIONARY
  5
19
330
C
100
AcDbDictionary
  0
ENDSEC
  0
EOF
