  0
SECTION
  2
HEADER
  9
$ACADVER
  1
AC1014
  9
$HANDSEED
  5
FFFF
  9
$MEASUREMENT
 70
     1
  0
ENDSEC
  0
SECTION
  2
TABLES
  0
TABLE
  2
VPORT
  5
8
330
0
100
AcDbSymbolTable
 70
     4
  0
VPORT
  5
2E
330
8
100
AcDbSymbolTableRecord
100
AcDbViewportTableRecord
  2
*ACTIVE
 70
     0
 10
0.0
 20
0.0
 11
1.0
 21
1.0
 12
210.0
 22
148.5
 13
0.0
 23
0.0
 14
10.0
 24
10.0
 15
10.0
 25
10.0
 16
0.0
 26
0.0
 36
1.0
 17
0.0
 27
0.0
 37
0.0
 40
341.0
 41
1.24
 42
50.0
 43
0.0
 44
0.0
 50
0.0
 51
0.0
 71
     0
 72
   100
 73
     1
 74
     3
 75
     0
 76
     0
 77
     0
 78
     0
  0
ENDTAB
  0
TABLE
  2
LTYPE
  5
5
330
0
100
AcDbSymbolTable
 70
     1
  0
LTYPE
  5
14
330
5
100
AcDbSymbolTableRecord
100
AcDbLinetypeTableRecord
  2
BYBLOCK
 70
     0
  3

 72
    65
 73
     0
 40
0.0
  0
LTYPE
  5
15
330
5
100
AcDbSymbolTableRecord
100
AcDbLinetypeTableRecord
  2
BYLAYER
 70
     0
  3

 72
    65
 73
     0
 40
0.0
  0
LTYPE
  5
16
330
5
100
AcDbSymbolTableRecord
100
AcDbLinetypeTableRecord
  2
CONTINUOUS
 70
     0
  3
Solid line
 72
    65
 73
     0
 40
0.0
  0
ENDTAB
  0
TABLE
  2
LAYER
  5
2
100
AcDbSymbolTable
 70
1
  0
LAYER
  5
50
100
AcDbSymbolTableRecord
100
AcDbLayerTableRecord
  2
0
 70
0
  6
CONTINUOUS
  0
ENDTAB
  0
TABLE
  2
STYLE
  5
3
330
0
100
AcDbSymbolTable
 70
     1
  0
STYLE
  5
11
330
3
100
AcDbSymbolTableRecord
100
AcDbTextStyleTableRecord
  2
STANDARD
 70
     0
 40
0.0
 41
1.0
 50
0.0
 71
     0
 42
2.5
  3
txt
  4

  0
ENDTAB
  0
TABLE
  2
VIEW
  5
6
330
0
100
AcDbSymbolTable
 70
     0
  0
ENDTAB
  0
TABLE
  2
UCS
  5
7
330
0
100
AcDbSymbolTable
 70
     0
  0
ENDTAB
  0
TABLE
  2
APPID
  5
9
330
0
100
AcDbSymbolTable
 70
     2
  0
APPID
  5
12
330
9
100
AcDbSymbolTableRecord
100
AcDbRegAppTableRecord
  2
ACAD
 70
     0
  0
ENDTAB
  0
TABLE
  2
DIMSTYLE
  5
A
330
0
100
AcDbSymbolTable
 70
     1
  0
DIMSTYLE
105
27
330
A
100
AcDbSymbolTableRecord
100
AcDbDimStyleTableRecord
  2
ISO-25
 70
     0
  3

  4

  5

  6

  7

 40
1.0
 41
2.5
 42
0.625
 43
3.75
 44
1.25
 45
0.0
 46
0.0
 47
0.0
 48
0.0
140
2.5
141
2.5
142
0.0
143
0.03937007874016
144
1.0
145
0.0
146
1.0
147
0.625
 71
     0
 72
     0
 73
     0
 74
     0
 75
     0
 76
     0
 77
     1
 78
     8
170
     0
171
     3
172
     1
173
     0
174
     0
175
     0
176
     0
177
     0
178
     0
270
     2
271
     2
272
     2
273
     2
274
     3
340
11
275
     0
280
     0
281
     0
282
     0
283
     0
284
     8
285
     0
286
     0
287
     3
288
     0
  0
ENDTAB
  0
TABLE
  2
BLOCK_RECORD
  5
1
330
0
100
AcDbSymbolTable
 70
     1
  0
BLOCK_RECORD
  5
1F
330
1
100
AcDbSymbolTableRecord
100
AcDbBlockTableRecord
  2
*MODEL_SPACE
  0
BLOCK_RECORD
  5
1B
330
1
100
AcDbSymbolTableRecord
100
AcDbBlockTableRecord
  2
*PAPER_SPACE
  0
ENDTAB
  0
ENDSEC
  0
SECTION
  2
BLOCKS
  0
BLOCK
  5
20
330
1F
100
AcDbEntity
  8
0
100
AcDbBlockBegin
  2
*MODEL_SPACE
 70
     0
 10
0.0
 20
0.0
 30
0.0
  3
*MODEL_SPACE
  1

  0
ENDBLK
  5
21
330
1F
100
AcDbEntity
  8
0
100
AcDbBlockEnd
  0
BLOCK
  5
1C
330
1B
100
AcDbEntity
 67
     1
  8
0
100
AcDbBlockBegin
  2
*PAPER_SPACE
  1

  0
ENDBLK
  5
1D
330
1B
100
AcDbEntity
 67
     1
  8
0
100
AcDbBlockEnd
  0
ENDSEC
  0
SECTION
  2
ENTITIES
  0
LWPOLYLINE
  5
100
100
AcDbEntity
  8
0
 62
7
100
AcDbPolyline
 90
20
 70
1
 10
58.807773
 20
59.907601
 30
0.0
 10
120.674443
 20
59.907601
 30
0.0
 10
120.674443
 20
48.174268
 30
0.0
 10
117.474444
 20
48.174268
 30
0.0
 10
117.474444
 20
38.040938
 30
0.0
 10
120.674443
 20
38.040938
 30
0.0
 10
120.674443
 20
26.307606
 30
0.0
 10
117.474444
 20
26.307606
 30
0.0
 10
117.474444
 20
16.174276
 30
0.0
 10
120.674443
 20
16.174276
 30
0.0
 10
120.674443
 20
4.440943
 30
0.0
 10
58.807773
 20
4.440943
 30
0.0
 10
58.807773
 20
16.174276
 30
0.0
 10
62.007775
 20
16.174276
 30
0.0
 10
62.007775
 20
26.307606
 30
0.0
 10
58.807773
 20
26.307606
 30
0.0
 10
58.807773
 20
38.040938
 30
0.0
 10
62.007775
 20
38.040938
 30
0.0
 10
62.007775
 20
48.174268
 30
0.0
 10
58.807773
 20
48.174268
 30
0.0
  0
LWPOLYLINE
  5
101
100
AcDbEntity
  8
0
 62
7
100
AcDbPolyline
 90
20
 70
1
 10
129.113503
 20
48.174268
 30
0.0
 10
125.913507
 20
48.174268
 30
0.0
 10
125.913507
 20
59.907601
 30
0.0
 10
187.780168
 20
59.907601
 30
0.0
 10
187.780168
 20
48.174268
 30
0.0
 10
184.580172
 20
48.174268
 30
0.0
 10
184.580172
 20
38.040938
 30
0.0
 10
187.780168
 20
38.040938
 30
0.0
 10
187.780168
 20
26.307606
 30
0.0
 10
184.580172
 20
26.307606
 30
0.0
 10
184.580172
 20
16.174276
 30
0.0
 10
187.780168
 20
16.174276
 30
0.0
 10
187.780168
 20
4.440943
 30
0.0
 10
125.913507
 20
4.440943
 30
0.0
 10
125.913507
 20
16.174276
 30
0.0
 10
129.113503
 20
16.174276
 30
0.0
 10
129.113503
 20
26.307606
 30
0.0
 10
125.913507
 20
26.307606
 30
0.0
 10
125.913507
 20
38.040938
 30
0.0
 10
129.113503
 20
38.040938
 30
0.0
  0
LWPOLYLINE
  5
102
100
AcDbEntity
  8
0
 62
7
100
AcDbPolyline
 90
28
 70
1
 10
52.407782
 20
2.747610
 30
0.0
 10
3.341115
 20
2.747610
 30
0.0
 10
3.341115
 20
14.480942
 30
0.0
 10
0.141116
 20
14.480942
 30
0.0
 10
0.141116
 20
24.614272
 30
0.0
 10
3.341115
 20
24.614272
 30
0.0
 10
3.341115
 20
36.347605
 30
0.0
 10
0.141116
 20
36.347605
 30
0.0
 10
0.141116
 20
46.480935
 30
0.0
 10
3.341115
 20
46.480935
 30
0.0
 10
3.341115
 20
58.214267
 30
0.0
 10
12.763338
 20
58.214267
 30
0.0
 10
12.763338
 20
55.014288
 30
0.0
 10
24.496670
 20
55.014288
 30
0.0
 10
24.496670
 20
58.214267
 30
0.0
 10
31.252226
 20
58.214267
 30
0.0
 10
31.252226
 20
55.014288
 30
0.0
 10
42.985559
 20
55.014288
 30
0.0
 10
42.985559
 20
58.214267
 30
0.0
 10
52.407782
 20
58.214267
 30
0.0
 10
52.407782
 20
46.480935
 30
0.0
 10
55.607781
 20
46.480935
 30
0.0
 10
55.607781
 20
36.347605
 30
0.0
 10
52.407782
 20
36.347605
 30
0.0
 10
52.407782
 20
24.614272
 30
0.0
 10
55.607781
 20
24.614272
 30
0.0
 10
55.607781
 20
14.480942
 30
0.0
 10
52.407782
 20
14.480942
 30
0.0
  0
LWPOLYLINE
  5
103
100
AcDbEntity
  8
0
 62
7
100
AcDbPolyline
 90
4
 70
1
 10
26.289724
 20
14.480942
 30
0.0
 10
29.489723
 20
14.480942
 30
0.0
 10
29.489723
 20
24.614272
 30
0.0
 10
26.289724
 20
24.614272
 30
0.0
  0
LWPOLYLINE
  5
104
100
AcDbEntity
  8
0
 62
7
100
AcDbPolyline
 90
4
 70
1
 10
26.289724
 20
36.347605
 30
0.0
 10
29.489723
 20
36.347605
 30
0.0
 10
29.489723
 20
46.480935
 30
0.0
 10
26.289724
 20
46.480935
 30
0.0
  0
LWPOLYLINE
  5
105
100
AcDbEntity
  8
0
 62
7
100
AcDbPolyline
 90
4
 70
1
 10
38.160163
 20
14.480942
 30
0.0
 10
41.360162
 20
14.480942
 30
0.0
 10
41.360162
 20
24.614272
 30
0.0
 10
38.160163
 20
24.614272
 30
0.0
  0
LWPOLYLINE
  5
106
100
AcDbEntity
  8
0
 62
7
100
AcDbPolyline
 90
4
 70
1
 10
38.160163
 20
36.347605
 30
0.0
 10
41.360162
 20
36.347605
 30
0.0
 10
41.360162
 20
46.480935
 30
0.0
 10
38.160163
 20
46.480935
 30
0.0
  0
LWPOLYLINE
  5
107
100
AcDbEntity
  8
0
 62
7
100
AcDbPolyline
 90
4
 70
1
 10
14.388736
 20
14.480942
 30
0.0
 10
17.588735
 20
14.480942
 30
0.0
 10
17.588735
 20
24.614272
 30
0.0
 10
14.388736
 20
24.614272
 30
0.0
  0
LWPOLYLINE
  5
108
100
AcDbEntity
  8
0
 62
7
100
AcDbPolyline
 90
4
 70
1
 10
14.388736
 20
36.347605
 30
0.0
 10
17.588735
 20
36.347605
 30
0.0
 10
17.588735
 20
46.480935
 30
0.0
 10
14.388736
 20
46.480935
 30
0.0
  0
LWPOLYLINE
  5
109
100
AcDbEntity
  8
0
 62
7
100
AcDbPolyline
 90
4
 70
1
 10
238.682011
 20
106.649815
 30
0.0
 10
235.482011
 20
106.649815
 30
0.0
 10
235.482011
 20
96.516485
 30
0.0
 10
238.682011
 20
96.516485
 30
0.0
  0
LWPOLYLINE
  5
10a
100
AcDbEntity
  8
0
 62
7
100
AcDbPolyline
 90
4
 70
1
 10
238.682011
 20
84.783150
 30
0.0
 10
235.482011
 20
84.783150
 30
0.0
 10
235.482011
 20
74.649823
 30
0.0
 10
238.682011
 20
74.649823
 30
0.0
  0
LWPOLYLINE
  5
10b
100
AcDbEntity
  8
0
 62
7
100
AcDbPolyline
 90
4
 70
1
 10
226.811572
 20
106.649815
 30
0.0
 10
223.611573
 20
106.649815
 30
0.0
 10
223.611573
 20
96.516485
 30
0.0
 10
226.811572
 20
96.516485
 30
0.0
  0
LWPOLYLINE
  5
10c
100
AcDbEntity
  8
0
 62
7
100
AcDbPolyline
 90
4
 70
1
 10
226.811572
 20
84.783150
 30
0.0
 10
223.611573
 20
84.783150
 30
0.0
 10
223.611573
 20
74.649823
 30
0.0
 10
226.811572
 20
74.649823
 30
0.0
  0
LWPOLYLINE
  5
10d
100
AcDbEntity
  8
0
 62
7
100
AcDbPolyline
 90
4
 70
1
 10
214.910583
 20
106.649815
 30
0.0
 10
211.710583
 20
106.649815
 30
0.0
 10
211.710583
 20
96.516485
 30
0.0
 10
214.910583
 20
96.516485
 30
0.0
  0
LWPOLYLINE
  5
10e
100
AcDbEntity
  8
0
 62
7
100
AcDbPolyline
 90
4
 70
1
 10
214.910583
 20
84.783150
 30
0.0
 10
211.710583
 20
84.783150
 30
0.0
 10
211.710583
 20
74.649823
 30
0.0
 10
214.910583
 20
74.649823
 30
0.0
  0
LWPOLYLINE
  5
10f
100
AcDbEntity
  8
0
 62
7
100
AcDbPolyline
 90
20
 70
1
 10
249.729622
 20
118.383148
 30
0.0
 10
249.729622
 20
106.649815
 30
0.0
 10
252.929627
 20
106.649815
 30
0.0
 10
252.929627
 20
96.516485
 30
0.0
 10
249.729622
 20
96.516485
 30
0.0
 10
249.729622
 20
84.783150
 30
0.0
 10
252.929627
 20
84.783150
 30
0.0
 10
252.929627
 20
74.649823
 30
0.0
 10
249.729622
 20
74.649823
 30
0.0
 10
249.729622
 20
62.916488
 30
0.0
 10
200.662963
 20
62.916488
 30
0.0
 10
200.662963
 20
74.649823
 30
0.0
 10
197.462964
 20
74.649823
 30
0.0
 10
197.462964
 20
84.783150
 30
0.0
 10
200.662963
 20
84.783150
 30
0.0
 10
200.662963
 20
96.516485
 30
0.0
 10
197.462964
 20
96.516485
 30
0.0
 10
197.462964
 20
106.649815
 30
0.0
 10
200.662963
 20
106.649815
 30
0.0
 10
200.662963
 20
118.383148
 30
0.0
  0
LWPOLYLINE
  5
110
100
AcDbEntity
  8
0
 62
7
100
AcDbPolyline
 90
32
 70
1
 10
192.005187
 20
84.218708
 30
0.0
 10
195.205186
 20
84.218708
 30
0.0
 10
195.205186
 20
74.085378
 30
0.0
 10
192.005187
 20
74.085378
 30
0.0
 10
192.005187
 20
65.552048
 30
0.0
 10
182.676659
 20
65.552048
 30
0.0
 10
182.676659
 20
106.085396
 30
0.0
 10
179.476657
 20
106.085396
 30
0.0
 10
179.476657
 20
65.552048
 30
0.0
 10
166.829037
 20
65.552048
 30
0.0
 10
166.829037
 20
106.085396
 30
0.0
 10
163.629038
 20
106.085396
 30
0.0
 10
163.629038
 20
65.552048
 30
0.0
 10
149.067049
 20
65.552048
 30
0.0
 10
149.067049
 20
106.085396
 30
0.0
 10
145.867049
 20
106.085396
 30
0.0
 10
145.867049
 20
65.552048
 30
0.0
 10
136.538510
 20
65.552048
 30
0.0
 10
136.538510
 20
74.085378
 30
0.0
 10
133.338533
 20
74.085378
 30
0.0
 10
133.338533
 20
84.218708
 30
0.0
 10
136.538510
 20
84.218708
 30
0.0
 10
136.538510
 20
95.952041
 30
0.0
 10
133.338533
 20
95.952041
 30
0.0
 10
133.338533
 20
106.085396
 30
0.0
 10
136.538510
 20
106.085396
 30
0.0
 10
136.538510
 20
117.818729
 30
0.0
 10
192.005187
 20
117.818729
 30
0.0
 10
192.005187
 20
106.085396
 30
0.0
 10
195.205186
 20
106.085396
 30
0.0
 10
195.205186
 20
95.952041
 30
0.0
 10
192.005187
 20
95.952041
 30
0.0
  0
LWPOLYLINE
  5
111
100
AcDbEntity
  8
0
 62
7
100
AcDbPolyline
 90
32
 70
1
 10
129.824610
 20
73.760685
 30
0.0
 10
126.624605
 20
73.760685
 30
0.0
 10
126.624605
 20
65.227354
 30
0.0
 10
117.296088
 20
65.227354
 30
0.0
 10
117.296088
 20
105.760702
 30
0.0
 10
114.096083
 20
105.760702
 30
0.0
 10
114.096083
 20
65.227354
 30
0.0
 10
101.448464
 20
65.227354
 30
0.0
 10
101.448464
 20
105.760702
 30
0.0
 10
98.248459
 20
105.760702
 30
0.0
 10
98.248459
 20
65.227354
 30
0.0
 10
83.686469
 20
65.227354
 30
0.0
 10
83.686469
 20
105.760702
 30
0.0
 10
80.486464
 20
105.760702
 30
0.0
 10
80.486464
 20
65.227354
 30
0.0
 10
71.157948
 20
65.227354
 30
0.0
 10
71.157948
 20
73.760685
 30
0.0
 10
67.957943
 20
73.760685
 30
0.0
 10
67.957943
 20
83.894015
 30
0.0
 10
71.157948
 20
83.894015
 30
0.0
 10
71.157948
 20
95.627347
 30
0.0
 10
67.957943
 20
95.627347
 30
0.0
 10
67.957943
 20
105.760702
 30
0.0
 10
71.157948
 20
105.760702
 30
0.0
 10
71.157948
 20
117.494035
 30
0.0
 10
126.624605
 20
117.494035
 30
0.0
 10
126.624605
 20
105.760702
 30
0.0
 10
129.824610
 20
105.760702
 30
0.0
 10
129.824610
 20
95.627347
 30
0.0
 10
126.624605
 20
95.627347
 30
0.0
 10
126.624605
 20
83.894015
 30
0.0
 10
129.824610
 20
83.894015
 30
0.0
  0
LWPOLYLINE
  5
112
100
AcDbEntity
  8
0
 62
7
100
AcDbPolyline
 90
32
 70
1
 10
0.141111
 20
103.640928
 30
0.0
 10
3.341115
 20
103.640928
 30
0.0
 10
3.341115
 20
112.174284
 30
0.0
 10
12.669633
 20
112.174284
 30
0.0
 10
12.669633
 20
71.640936
 30
0.0
 10
15.869638
 20
71.640936
 30
0.0
 10
15.869638
 20
112.174284
 30
0.0
 10
28.517257
 20
112.174284
 30
0.0
 10
28.517257
 20
71.640936
 30
0.0
 10
31.717262
 20
71.640936
 30
0.0
 10
31.717262
 20
112.174284
 30
0.0
 10
46.279252
 20
112.174284
 30
0.0
 10
46.279252
 20
71.640936
 30
0.0
 10
49.479256
 20
71.640936
 30
0.0
 10
49.479256
 20
112.174284
 30
0.0
 10
58.807773
 20
112.174284
 30
0.0
 10
58.807773
 20
103.640928
 30
0.0
 10
62.007778
 20
103.640928
 30
0.0
 10
62.007778
 20
93.507598
 30
0.0
 10
58.807773
 20
93.507598
 30
0.0
 10
58.807773
 20
81.774263
 30
0.0
 10
62.007778
 20
81.774263
 30
0.0
 10
62.007778
 20
71.640936
 30
0.0
 10
58.807773
 20
71.640936
 30
0.0
 10
58.807773
 20
59.907601
 30
0.0
 10
3.341115
 20
59.907601
 30
0.0
 10
3.341115
 20
71.640936
 30
0.0
 10
0.141111
 20
71.640936
 30
0.0
 10
0.141111
 20
81.774263
 30
0.0
 10
3.341115
 20
81.774263
 30
0.0
 10
3.341115
 20
93.507598
 30
0.0
 10
0.141111
 20
93.507598
 30
0.0
  0
LWPOLYLINE
  5
113
100
AcDbEntity
  8
0
 62
7
100
AcDbPolyline
 90
40
 70
1
 10
210.882998
 20
134.307364
 30
0.0
 10
210.882998
 20
122.574035
 30
0.0
 10
202.276687
 20
122.574035
 30
0.0
 10
202.276687
 20
134.307364
 30
0.0
 10
199.076683
 20
134.307364
 30
0.0
 10
199.076683
 20
122.574035
 30
0.0
 10
190.375715
 20
122.574035
 30
0.0
 10
190.375715
 20
134.307364
 30
0.0
 10
187.175710
 20
134.307364
 30
0.0
 10
187.175710
 20
122.574035
 30
0.0
 10
176.128093
 20
122.574035
 30
0.0
 10
176.128093
 20
134.307364
 30
0.0
 10
172.928088
 20
134.307364
 30
0.0
 10
172.928088
 20
144.440694
 30
0.0
 10
176.128093
 20
144.440694
 30
0.0
 10
176.128093
 20
156.174027
 30
0.0
 10
172.928088
 20
156.174027
 30
0.0
 10
172.928088
 20
166.307358
 30
0.0
 10
176.128093
 20
166.307358
 30
0.0
 10
176.128093
 20
178.040692
 30
0.0
 10
185.550308
 20
178.040692
 30
0.0
 10
185.550308
 20
174.840714
 30
0.0
 10
197.283640
 20
174.840714
 30
0.0
 10
197.283640
 20
178.040692
 30
0.0
 10
204.039193
 20
178.040692
 30
0.0
 10
204.039193
 20
174.840714
 30
0.0
 10
215.772526
 20
174.840714
 30
0.0
 10
215.772526
 20
178.040692
 30
0.0
 10
225.194741
 20
178.040692
 30
0.0
 10
225.194741
 20
166.307358
 30
0.0
 10
228.394745
 20
166.307358
 30
0.0
 10
228.394745
 20
156.174027
 30
0.0
 10
225.194741
 20
156.174027
 30
0.0
 10
225.194741
 20
144.440694
 30
0.0
 10
228.394745
 20
144.440694
 30
0.0
 10
228.394745
 20
134.307364
 30
0.0
 10
225.194741
 20
134.307364
 30
0.0
 10
225.194741
 20
122.574035
 30
0.0
 10
214.083003
 20
122.574035
 30
0.0
 10
214.083003
 20
134.307364
 30
0.0
  0
LWPOLYLINE
  5
114
100
AcDbEntity
  8
0
 62
7
100
AcDbPolyline
 90
40
 70
1
 10
155.289352
 20
122.574035
 30
0.0
 10
155.289352
 20
134.307364
 30
0.0
 10
152.089347
 20
134.307364
 30
0.0
 10
152.089347
 20
122.574035
 30
0.0
 10
143.418916
 20
122.574035
 30
0.0
 10
143.418916
 20
134.307364
 30
0.0
 10
140.218911
 20
134.307364
 30
0.0
 10
140.218911
 20
122.574035
 30
0.0
 10
131.517943
 20
122.574035
 30
0.0
 10
131.517943
 20
134.307364
 30
0.0
 10
128.317938
 20
134.307364
 30
0.0
 10
128.317938
 20
122.574035
 30
0.0
 10
117.270321
 20
122.574035
 30
0.0
 10
117.270321
 20
134.307364
 30
0.0
 10
114.070316
 20
134.307364
 30
0.0
 10
114.070316
 20
144.440694
 30
0.0
 10
117.270321
 20
144.440694
 30
0.0
 10
117.270321
 20
156.174027
 30
0.0
 10
114.070316
 20
156.174027
 30
0.0
 10
114.070316
 20
166.307358
 30
0.0
 10
117.270321
 20
166.307358
 30
0.0
 10
117.270321
 20
178.040692
 30
0.0
 10
126.692536
 20
178.040692
 30
0.0
 10
126.692536
 20
174.840714
 30
0.0
 10
138.425868
 20
174.840714
 30
0.0
 10
138.425868
 20
178.040692
 30
0.0
 10
145.181422
 20
178.040692
 30
0.0
 10
145.181422
 20
174.840714
 30
0.0
 10
156.914754
 20
174.840714
 30
0.0
 10
156.914754
 20
178.040692
 30
0.0
 10
166.336969
 20
178.040692
 30
0.0
 10
166.336969
 20
166.307358
 30
0.0
 10
169.536974
 20
166.307358
 30
0.0
 10
169.536974
 20
156.174027
 30
0.0
 10
166.336969
 20
156.174027
 30
0.0
 10
166.336969
 20
144.440694
 30
0.0
 10
169.536974
 20
144.440694
 30
0.0
 10
169.536974
 20
134.307364
 30
0.0
 10
166.336969
 20
134.307364
 30
0.0
 10
166.336969
 20
122.574035
 30
0.0
  0
LWPOLYLINE
  5
115
100
AcDbEntity
  8
0
 62
7
100
AcDbPolyline
 90
40
 70
1
 10
96.431563
 20
122.574035
 30
0.0
 10
96.431563
 20
134.307364
 30
0.0
 10
93.231558
 20
134.307364
 30
0.0
 10
93.231558
 20
122.574035
 30
0.0
 10
84.561127
 20
122.574035
 30
0.0
 10
84.561127
 20
134.307364
 30
0.0
 10
81.361122
 20
134.307364
 30
0.0
 10
81.361122
 20
122.574035
 30
0.0
 10
72.660154
 20
122.574035
 30
0.0
 10
72.660154
 20
134.307364
 30
0.0
 10
69.460150
 20
134.307364
 30
0.0
 10
69.460150
 20
122.574035
 30
0.0
 10
58.412532
 20
122.574035
 30
0.0
 10
58.412532
 20
134.307364
 30
0.0
 10
55.212528
 20
134.307364
 30
0.0
 10
55.212528
 20
144.440694
 30
0.0
 10
58.412532
 20
144.440694
 30
0.0
 10
58.412532
 20
156.174027
 30
0.0
 10
55.212528
 20
156.174027
 30
0.0
 10
55.212528
 20
166.307358
 30
0.0
 10
58.412532
 20
166.307358
 30
0.0
 10
58.412532
 20
178.040692
 30
0.0
 10
67.834747
 20
178.040692
 30
0.0
 10
67.834747
 20
174.840714
 30
0.0
 10
79.568080
 20
174.840714
 30
0.0
 10
79.568080
 20
178.040692
 30
0.0
 10
86.323633
 20
178.040692
 30
0.0
 10
86.323633
 20
174.840714
 30
0.0
 10
98.056965
 20
174.840714
 30
0.0
 10
98.056965
 20
178.040692
 30
0.0
 10
107.479180
 20
178.040692
 30
0.0
 10
107.479180
 20
166.307358
 30
0.0
 10
110.679185
 20
166.307358
 30
0.0
 10
110.679185
 20
156.174027
 30
0.0
 10
107.479180
 20
156.174027
 30
0.0
 10
107.479180
 20
144.440694
 30
0.0
 10
110.679185
 20
144.440694
 30
0.0
 10
110.679185
 20
134.307364
 30
0.0
 10
107.479180
 20
134.307364
 30
0.0
 10
107.479180
 20
122.574035
 30
0.0
  0
LWPOLYLINE
  5
116
100
AcDbEntity
  8
0
 62
7
100
AcDbPolyline
 90
44
 70
1
 10
49.207786
 20
165.512170
 30
0.0
 10
39.785571
 20
165.512170
 30
0.0
 10
39.785571
 20
162.312165
 30
0.0
 10
49.207786
 20
162.312165
 30
0.0
 10
49.207786
 20
149.664547
 30
0.0
 10
39.785571
 20
149.664547
 30
0.0
 10
39.785571
 20
146.464539
 30
0.0
 10
49.207786
 20
146.464539
 30
0.0
 10
49.207786
 20
131.902550
 30
0.0
 10
39.785571
 20
131.902550
 30
0.0
 10
39.785571
 20
128.702573
 30
0.0
 10
49.207786
 20
128.702573
 30
0.0
 10
49.207786
 20
119.374031
 30
0.0
 10
39.785571
 20
119.374031
 30
0.0
 10
39.785571
 20
116.174023
 30
0.0
 10
28.052239
 20
116.174023
 30
0.0
 10
28.052239
 20
119.374031
 30
0.0
 10
21.296685
 20
119.374031
 30
0.0
 10
21.296685
 20
116.174023
 30
0.0
 10
9.563353
 20
116.174023
 30
0.0
 10
9.563353
 20
119.374031
 30
0.0
 10
0.141111
 20
119.374031
 30
0.0
 10
0.141111
 20
128.702573
 30
0.0
 10
9.563353
 20
128.702573
 30
0.0
 10
9.563353
 20
131.902550
 30
0.0
 10
0.141111
 20
131.902550
 30
0.0
 10
0.141111
 20
146.464539
 30
0.0
 10
9.563353
 20
146.464539
 30
0.0
 10
9.563353
 20
149.664547
 30
0.0
 10
0.141111
 20
149.664547
 30
0.0
 10
0.141111
 20
162.312165
 30
0.0
 10
9.563353
 20
162.312165
 30
0.0
 10
9.563353
 20
165.512170
 30
0.0
 10
0.141111
 20
165.512170
 30
0.0
 10
0.141111
 20
174.840687
 30
0.0
 10
9.563353
 20
174.840687
 30
0.0
 10
9.563353
 20
178.040692
 30
0.0
 10
21.296685
 20
178.040692
 30
0.0
 10
21.296685
 20
174.840687
 30
0.0
 10
28.052239
 20
174.840687
 30
0.0
 10
28.052239
 20
178.040692
 30
0.0
 10
39.785571
 20
178.040692
 30
0.0
 10
39.785571
 20
174.840687
 30
0.0
 10
49.207786
 20
174.840687
 30
0.0
  0
LWPOLYLINE
  5
117
100
AcDbEntity
  8
0
 62
7
100
AcDbPolyline
 90
4
 70
1
 10
21.296685
 20
162.312165
 30
0.0
 10
28.052239
 20
162.312165
 30
0.0
 10
28.052239
 20
165.512170
 30
0.0
 10
21.296685
 20
165.512170
 30
0.0
  0
LWPOLYLINE
  5
118
100
AcDbEntity
  8
0
 62
7
100
AcDbPolyline
 90
4
 70
1
 10
21.296685
 20
146.464539
 30
0.0
 10
28.052239
 20
146.464539
 30
0.0
 10
28.052239
 20
149.664547
 30
0.0
 10
21.296685
 20
149.664547
 30
0.0
  0
LWPOLYLINE
  5
119
100
AcDbEntity
  8
0
 62
7
100
AcDbPolyline
 90
4
 70
1
 10
28.052239
 20
131.902550
 30
0.0
 10
21.296685
 20
131.902550
 30
0.0
 10
21.296685
 20
128.702573
 30
0.0
 10
28.052239
 20
128.702573
 30
0.0
  0
ENDSEC
  0
SECTION
  2
OBJECTS
  0
DICTIONARY
  5
C
330
0
100
AcDbDictionary
  3
ACAD_GROUP
350
D
  3
ACAD_MLINESTYLE
350
17
  0
DICTIONARY
  5
D
330
C
100
AcDbDictionary
  0
DICTIONARY
  5
1A
330
C
100
AcDbDictionary
  0
DICTIONARY
  5
17
330
C
100
AcDbDictionary
  3
STANDARD
350
18
  0
DICTIONARY
  5
19
330
C
100
AcDbDictionary
  0
ENDSEC
  0
EOF
