<?xml version="1.0" encoding="UTF-8" standalone="no"?>
<svg
   xmlns:dc="http://purl.org/dc/elements/1.1/"
   xmlns:cc="http://creativecommons.org/ns#"
   xmlns:rdf="http://www.w3.org/1999/02/22-rdf-syntax-ns#"
   xmlns:svg="http://www.w3.org/2000/svg"
   xmlns="http://www.w3.org/2000/svg"
   xmlns:sodipodi="http://sodipodi.sourceforge.net/DTD/sodipodi-0.dtd"
   xmlns:inkscape="http://www.inkscape.org/namespaces/inkscape"
   width="384mm"
   height="384mm"
   version="1.1"
   id="svg72"
   sodipodi:docname="pencil_holder2D_china_ready.svg"
   inkscape:version="0.92.2 5c3e80d, 2017-08-06">
  <metadata
     id="metadata76">
    <rdf:RDF>
      <cc:Work
         rdf:about="">
        <dc:format>image/svg+xml</dc:format>
        <dc:type
           rdf:resource="http://purl.org/dc/dcmitype/StillImage" />
        <dc:title></dc:title>
      </cc:Work>
    </rdf:RDF>
  </metadata>
  <sodipodi:namedview
     pagecolor="#ffffff"
     bordercolor="#666666"
     borderopacity="1"
     objecttolerance="10"
     gridtolerance="10"
     guidetolerance="10"
     inkscape:pageopacity="0"
     inkscape:pageshadow="2"
     inkscape:window-width="1280"
     inkscape:window-height="719"
     id="namedview74"
     showgrid="false"
     inkscape:document-units="mm"
     units="mm"
     inkscape:zoom="0.43903474"
     inkscape:cx="280.24338"
     inkscape:cy="1465.6406"
     inkscape:window-x="0"
     inkscape:window-y="1"
     inkscape:window-maximized="1"
     inkscape:current-layer="g70"
     inkscape:snap-global="true"
     fit-margin-top="0"
     fit-margin-left="0"
     fit-margin-right="0"
     fit-margin-bottom="0" />
  <desc
     id="desc2">/Users/andy/Dropbox/MyProjects/erfindergarden/pencil-holder/2D/pencil_holder2D.dxf - scale = 1.000000, origin = (0.000000, 0.000000), method = manual</desc>
  <defs
     id="defs16">
    <marker
       id="DistanceX"
       orient="auto"
       refX="0"
       refY="0"
       style="overflow:visible">
      <path
         d="M 3,-3 -3,3 M 0,-5 V 5"
         style="stroke:#000000;stroke-width:0.5"
         id="path4"
         inkscape:connector-curvature="0" />
    </marker>
    <pattern
       height="8"
       id="Hatch"
       patternUnits="userSpaceOnUse"
       width="8"
       x="0"
       y="0">
      <path
         d="M8 4 l-4,4"
         linecap="square"
         stroke="#000000"
         stroke-width="0.25"
         id="path7" />
      <path
         d="M6 2 l-4,4"
         linecap="square"
         stroke="#000000"
         stroke-width="0.25"
         id="path9" />
      <path
         d="M4 0 l-4,4"
         linecap="square"
         stroke="#000000"
         stroke-width="0.25"
         id="path11" />
    </pattern>
    <symbol
       id="*MODEL_SPACE" />
    <symbol
       id="*PAPER_SPACE" />
  </defs>
  <g
     inkscape:groupmode="layer"
     inkscape:label="0"
     id="g70"
     transform="translate(0,831.32435)">
    <path
       d="M 214.03479,-404.06329 H 433.2474 v 41.5748 h -11.33858 v 35.9055 h 11.33858 v 41.5748 h -11.33858 v 35.9055 h 11.33858 v 41.5748 H 214.03479 v -41.5748 h 11.33859 v -35.9055 h -11.33859 v -41.5748 h 11.33859 v -35.9055 h -11.33859 z"
       style="fill:none;stroke:#000000"
       id="path18"
       inkscape:connector-curvature="0" />
    <path
       d="m 463.14958,-362.48849 h -11.33857 v -41.5748 h 219.21258 v 41.5748 h -11.33857 v 35.9055 h 11.33857 v 41.5748 h -11.33857 v 35.9055 h 11.33857 v 41.5748 H 451.81101 v -41.5748 h 11.33857 v -35.9055 h -11.33857 v -41.5748 h 11.33857 z"
       style="fill:none;stroke:#000000"
       id="path20"
       inkscape:connector-curvature="0" />
    <g
       id="g917"
       transform="translate(-17.39794,-851.96154)">
      <path
         inkscape:connector-curvature="0"
         id="path22"
         style="fill:none;stroke:#000000"
         d="M 208.75559,650.43365 H 34.897323 v -41.5748 H 23.558744 v -35.9055 h 11.338579 v -41.5748 H 23.558744 v -35.9055 h 11.338579 v -41.5748 h 33.385829 v 11.33851 h 41.574798 v -11.33851 h 23.93701 v 11.33851 h 41.5748 v -11.33851 h 33.38583 v 41.5748 h 11.33858 v 35.9055 h -11.33858 v 41.5748 h 11.33858 v 35.9055 h -11.33858 z" />
      <path
         inkscape:connector-curvature="0"
         id="path24"
         style="fill:none;stroke:#000000"
         d="m 116.21129,608.85885 h 11.33858 v -35.9055 h -11.33858 z" />
      <path
         inkscape:connector-curvature="0"
         id="path26"
         style="fill:none;stroke:#000000"
         d="m 116.21129,531.37855 h 11.33858 v -35.9055 h -11.33858 z" />
      <path
         inkscape:connector-curvature="0"
         id="path28"
         style="fill:none;stroke:#000000"
         d="m 158.2719,608.85885 h 11.33858 v -35.9055 H 158.2719 Z" />
      <path
         inkscape:connector-curvature="0"
         id="path30"
         style="fill:none;stroke:#000000"
         d="m 158.2719,531.37855 h 11.33858 v -35.9055 H 158.2719 Z" />
      <path
         inkscape:connector-curvature="0"
         id="path32"
         style="fill:none;stroke:#000000"
         d="m 74.042434,608.85885 h 11.338579 v -35.9055 H 74.042434 Z" />
      <path
         inkscape:connector-curvature="0"
         id="path34"
         style="fill:none;stroke:#000000"
         d="m 74.042434,531.37855 h 11.338579 v -35.9055 H 74.042434 Z" />
    </g>
    <g
       id="g959"
       transform="translate(-53.119274,-851.8064)">
      <path
         inkscape:connector-curvature="0"
         id="path36"
         style="fill:none;stroke:#000000"
         d="m 904.50372,282.12109 h -11.33858 v 35.9055 h 11.33858 z" />
      <path
         inkscape:connector-curvature="0"
         id="path38"
         style="fill:none;stroke:#000000"
         d="m 904.50372,359.6014 h -11.33858 v 35.90549 h 11.33858 z" />
      <path
         inkscape:connector-curvature="0"
         id="path40"
         style="fill:none;stroke:#000000"
         d="m 862.44311,282.12109 h -11.33858 v 35.9055 h 11.33858 z" />
      <path
         inkscape:connector-curvature="0"
         id="path42"
         style="fill:none;stroke:#000000"
         d="m 862.44311,359.6014 h -11.33858 v 35.90549 h 11.33858 z" />
      <path
         inkscape:connector-curvature="0"
         id="path44"
         style="fill:none;stroke:#000000"
         d="m 820.27425,282.12109 h -11.33858 v 35.9055 h 11.33858 z" />
      <path
         inkscape:connector-curvature="0"
         id="path46"
         style="fill:none;stroke:#000000"
         d="m 820.27425,359.6014 h -11.33858 v 35.90549 h 11.33858 z" />
      <path
         inkscape:connector-curvature="0"
         id="path48"
         style="fill:none;stroke:#000000"
         d="m 943.6488,240.54629 v 41.5748 h 11.3386 v 35.9055 h -11.3386 v 41.57481 h 11.3386 v 35.90549 H 943.6488 V 437.0817 H 769.79056 V 395.50689 H 758.45198 V 359.6014 h 11.33858 v -41.57481 h -11.33858 v -35.9055 h 11.33858 v -41.5748 z" />
    </g>
    <path
       d="m 685.99413,-490.20501 h 11.33858 v 35.9055 h -11.33858 v 30.23621 H 652.94029 V -567.6854 H 641.6017 v 143.6221 h -44.8144 v -143.6221 h -11.33858 v 143.6221 h -51.5976 v -143.6221 h -11.33858 v 143.6221 h -33.05388 v -30.23621 h -11.3385 v -35.9055 h 11.3385 v -41.5748 h -11.3385 v -35.90559 h 11.3385 v -41.5748 h 196.53547 v 41.5748 h 11.33858 v 35.90559 h -11.33858 z"
       style="fill:none;stroke:#000000"
       id="path50"
       inkscape:connector-curvature="0" />
    <path
       d="m 465.66925,-453.14902 h -11.3386 v 30.23621 h -33.0538 v -143.6221 h -11.3386 v 143.6221 h -44.8144 v -143.6221 h -11.3386 v 143.6221 h -51.5976 v -143.6221 h -11.3386 v 143.6221 h -33.0538 v -30.23621 h -11.3386 v -35.9055 h 11.3386 v -41.5748 h -11.3386 v -35.90559 h 11.3386 v -41.5748 h 196.5354 v 41.5748 h 11.3386 v 35.90559 h -11.3386 v 41.5748 h 11.3386 z"
       style="fill:none;stroke:#000000"
       id="path52"
       inkscape:connector-curvature="0" />
    <path
       d="M 6.1607856,-559.0239 H 17.499384 v -30.2363 h 33.053801 v 143.6221 h 11.338602 v -143.6221 h 44.814403 v 143.6221 h 11.3386 v -143.6221 h 51.5976 v 143.6221 h 11.3386 v -143.6221 h 33.0538 v 30.2363 h 11.3386 v 35.9055 h -11.3386 v 41.57481 h 11.3386 v 35.90549 h -11.3386 v 41.57481 H 17.499384 V -445.6381 H 6.1607856 v -35.90549 H 17.499384 V -523.1184 H 6.1607856 Z"
       style="fill:none;stroke:#000000"
       id="path54"
       inkscape:connector-curvature="0" />
    <path
       d="m 752.88401,-667.6845 v 41.57479 h -30.4948 v -41.57479 h -11.3386 v 41.57479 h -30.8302 v -41.57479 h -11.3386 v 41.57479 h -39.1451 v -41.57479 h -11.3386 V -703.59 h 11.3386 v -41.5748 h -11.3386 v -35.90551 h 11.3386 v -41.5748 h 33.3858 v 11.3385 h 41.5748 v -11.3385 h 23.937 v 11.3385 h 41.5748 v -11.3385 h 33.3858 v 41.5748 h 11.3386 v 35.90551 h -11.3386 v 41.5748 h 11.3386 v 35.9055 h -11.3386 v 41.57479 h -39.3723 v -41.57479 z"
       style="fill:none;stroke:#000000"
       id="path56"
       inkscape:connector-curvature="0" />
    <path
       d="m 555.89865,-626.10971 v -41.57479 h -11.3386 v 41.57479 h -30.722 v -41.57479 h -11.3386 v 41.57479 h -30.8302 v -41.57479 h -11.3386 v 41.57479 h -39.1451 v -41.57479 h -11.3386 V -703.59 h 11.3386 v -41.5748 h -11.3386 v -35.90551 h 11.3386 v -41.5748 h 33.3858 v 11.3385 h 41.5748 v -11.3385 h 23.937 v 11.3385 h 41.5748 v -11.3385 h 33.3858 v 41.5748 h 11.3386 v 35.90551 h -11.3386 v 41.5748 h 11.3386 v 35.9055 h -11.3386 v 41.57479 z"
       style="fill:none;stroke:#000000"
       id="path58"
       inkscape:connector-curvature="0" />
    <path
       d="m 347.34743,-626.10971 v -41.57479 h -11.3386 v 41.57479 h -30.722 v -41.57479 h -11.3386 v 41.57479 h -30.8302 v -41.57479 h -11.3386 v 41.57479 h -39.1451 v -41.57479 h -11.3386 V -703.59 h 11.3386 v -41.5748 h -11.3386 v -35.90551 h 11.3386 v -41.5748 h 33.3858 v 11.3385 h 41.5748 v -11.3385 h 23.937 v 11.3385 h 41.5748 v -11.3385 h 33.3858 v 41.5748 h 11.3386 v 35.90551 h -11.3386 v 41.5748 h 11.3386 v 35.9055 h -11.3386 v 41.57479 z"
       style="fill:none;stroke:#000000"
       id="path60"
       inkscape:connector-curvature="0" />
    <g
       id="g908"
       transform="translate(-36.261538,-842.08013)">
      <path
         inkscape:connector-curvature="0"
         id="path62"
         style="fill:none;stroke:#000000"
         d="m 216.28062,63.827414 h -33.3858 v 11.338602 h 33.3858 v 44.814394 h -33.3858 v 11.33861 h 33.3858 v 51.5976 h -33.3858 v 11.3385 h 33.3858 v 33.05389 h -33.3858 v 11.33861 h -41.5748 v -11.33861 h -23.937 v 11.33861 H 75.808222 V 227.30901 H 42.422324 v -33.05389 h 33.385898 v -11.3385 H 42.422324 v -51.5976 H 75.808222 V 119.98041 H 42.422324 V 75.166016 H 75.808222 V 63.827414 H 42.422324 V 30.773613 H 75.808222 V 19.435015 h 41.574798 v 11.338598 h 23.937 V 19.435015 h 41.5748 v 11.338598 h 33.3858 z" />
      <path
         inkscape:connector-curvature="0"
         id="path64"
         style="fill:none;stroke:#000000"
         d="m 117.38302,75.166016 h 23.937 V 63.827414 h -23.937 z" />
      <path
         inkscape:connector-curvature="0"
         id="path66"
         style="fill:none;stroke:#000000"
         d="m 117.38302,131.31902 h 23.937 v -11.33861 h -23.937 z" />
      <path
         inkscape:connector-curvature="0"
         id="path68"
         style="fill:none;stroke:#000000"
         d="m 141.32002,182.91662 h -23.937 v 11.3385 h 23.937 z" />
    </g>
  </g>
</svg>
