  0
SECTION
  2
HEADER
  9
$ACADVER
  1
AC1014
  9
$HANDSEED
  5
FFFF
  9
$MEASUREMENT
 70
     1
  0
ENDSEC
  0
SECTION
  2
TABLES
  0
TABLE
  2
VPORT
  5
8
330
0
100
AcDbSymbolTable
 70
     4
  0
VPORT
  5
2E
330
8
100
AcDbSymbolTableRecord
100
AcDbViewportTableRecord
  2
*ACTIVE
 70
     0
 10
0.0
 20
0.0
 11
1.0
 21
1.0
 12
210.0
 22
148.5
 13
0.0
 23
0.0
 14
10.0
 24
10.0
 15
10.0
 25
10.0
 16
0.0
 26
0.0
 36
1.0
 17
0.0
 27
0.0
 37
0.0
 40
341.0
 41
1.24
 42
50.0
 43
0.0
 44
0.0
 50
0.0
 51
0.0
 71
     0
 72
   100
 73
     1
 74
     3
 75
     0
 76
     0
 77
     0
 78
     0
  0
ENDTAB
  0
TABLE
  2
LTYPE
  5
5
330
0
100
AcDbSymbolTable
 70
     1
  0
LTYPE
  5
14
330
5
100
AcDbSymbolTableRecord
100
AcDbLinetypeTableRecord
  2
BYBLOCK
 70
     0
  3

 72
    65
 73
     0
 40
0.0
  0
LTYPE
  5
15
330
5
100
AcDbSymbolTableRecord
100
AcDbLinetypeTableRecord
  2
BYLAYER
 70
     0
  3

 72
    65
 73
     0
 40
0.0
  0
LTYPE
  5
16
330
5
100
AcDbSymbolTableRecord
100
AcDbLinetypeTableRecord
  2
CONTINUOUS
 70
     0
  3
Solid line
 72
    65
 73
     0
 40
0.0
  0
ENDTAB
  0
TABLE
  2
LAYER
  5
2
100
AcDbSymbolTable
 70
1
  0
LAYER
  5
50
100
AcDbSymbolTableRecord
100
AcDbLayerTableRecord
  2
0
 70
0
  6
CONTINUOUS
  0
ENDTAB
  0
TABLE
  2
STYLE
  5
3
330
0
100
AcDbSymbolTable
 70
     1
  0
STYLE
  5
11
330
3
100
AcDbSymbolTableRecord
100
AcDbTextStyleTableRecord
  2
STANDARD
 70
     0
 40
0.0
 41
1.0
 50
0.0
 71
     0
 42
2.5
  3
txt
  4

  0
ENDTAB
  0
TABLE
  2
VIEW
  5
6
330
0
100
AcDbSymbolTable
 70
     0
  0
ENDTAB
  0
TABLE
  2
UCS
  5
7
330
0
100
AcDbSymbolTable
 70
     0
  0
ENDTAB
  0
TABLE
  2
APPID
  5
9
330
0
100
AcDbSymbolTable
 70
     2
  0
APPID
  5
12
330
9
100
AcDbSymbolTableRecord
100
AcDbRegAppTableRecord
  2
ACAD
 70
     0
  0
ENDTAB
  0
TABLE
  2
DIMSTYLE
  5
A
330
0
100
AcDbSymbolTable
 70
     1
  0
DIMSTYLE
105
27
330
A
100
AcDbSymbolTableRecord
100
AcDbDimStyleTableRecord
  2
ISO-25
 70
     0
  3

  4

  5

  6

  7

 40
1.0
 41
2.5
 42
0.625
 43
3.75
 44
1.25
 45
0.0
 46
0.0
 47
0.0
 48
0.0
140
2.5
141
2.5
142
0.0
143
0.03937007874016
144
1.0
145
0.0
146
1.0
147
0.625
 71
     0
 72
     0
 73
     0
 74
     0
 75
     0
 76
     0
 77
     1
 78
     8
170
     0
171
     3
172
     1
173
     0
174
     0
175
     0
176
     0
177
     0
178
     0
270
     2
271
     2
272
     2
273
     2
274
     3
340
11
275
     0
280
     0
281
     0
282
     0
283
     0
284
     8
285
     0
286
     0
287
     3
288
     0
  0
ENDTAB
  0
TABLE
  2
BLOCK_RECORD
  5
1
330
0
100
AcDbSymbolTable
 70
     1
  0
BLOCK_RECORD
  5
1F
330
1
100
AcDbSymbolTableRecord
100
AcDbBlockTableRecord
  2
*MODEL_SPACE
  0
BLOCK_RECORD
  5
1B
330
1
100
AcDbSymbolTableRecord
100
AcDbBlockTableRecord
  2
*PAPER_SPACE
  0
ENDTAB
  0
ENDSEC
  0
SECTION
  2
BLOCKS
  0
BLOCK
  5
20
330
1F
100
AcDbEntity
  8
0
100
AcDbBlockBegin
  2
*MODEL_SPACE
 70
     0
 10
0.0
 20
0.0
 30
0.0
  3
*MODEL_SPACE
  1

  0
ENDBLK
  5
21
330
1F
100
AcDbEntity
  8
0
100
AcDbBlockEnd
  0
BLOCK
  5
1C
330
1B
100
AcDbEntity
 67
     1
  8
0
100
AcDbBlockBegin
  2
*PAPER_SPACE
  1

  0
ENDBLK
  5
1D
330
1B
100
AcDbEntity
 67
     1
  8
0
100
AcDbBlockEnd
  0
ENDSEC
  0
SECTION
  2
ENTITIES
  0
LWPOLYLINE
  5
100
100
AcDbEntity
  8
0
 62
7
100
AcDbPolyline
 90
20
 70
1
 10
58.807773
 20
201.725798
 30
0.0
 10
120.674443
 20
201.725798
 30
0.0
 10
120.674443
 20
189.992466
 30
0.0
 10
117.474444
 20
189.992466
 30
0.0
 10
117.474444
 20
179.859136
 30
0.0
 10
120.674443
 20
179.859136
 30
0.0
 10
120.674443
 20
168.125803
 30
0.0
 10
117.474444
 20
168.125803
 30
0.0
 10
117.474444
 20
157.992473
 30
0.0
 10
120.674443
 20
157.992473
 30
0.0
 10
120.674443
 20
146.259141
 30
0.0
 10
58.807773
 20
146.259141
 30
0.0
 10
58.807773
 20
157.992473
 30
0.0
 10
62.007775
 20
157.992473
 30
0.0
 10
62.007775
 20
168.125803
 30
0.0
 10
58.807773
 20
168.125803
 30
0.0
 10
58.807773
 20
179.859136
 30
0.0
 10
62.007775
 20
179.859136
 30
0.0
 10
62.007775
 20
189.992466
 30
0.0
 10
58.807773
 20
189.992466
 30
0.0
  0
LWPOLYLINE
  5
101
100
AcDbEntity
  8
0
 62
7
100
AcDbPolyline
 90
20
 70
1
 10
129.113503
 20
189.992466
 30
0.0
 10
125.913507
 20
189.992466
 30
0.0
 10
125.913507
 20
201.725798
 30
0.0
 10
187.780168
 20
201.725798
 30
0.0
 10
187.780168
 20
189.992466
 30
0.0
 10
184.580172
 20
189.992466
 30
0.0
 10
184.580172
 20
179.859136
 30
0.0
 10
187.780168
 20
179.859136
 30
0.0
 10
187.780168
 20
168.125803
 30
0.0
 10
184.580172
 20
168.125803
 30
0.0
 10
184.580172
 20
157.992473
 30
0.0
 10
187.780168
 20
157.992473
 30
0.0
 10
187.780168
 20
146.259141
 30
0.0
 10
125.913507
 20
146.259141
 30
0.0
 10
125.913507
 20
157.992473
 30
0.0
 10
129.113503
 20
157.992473
 30
0.0
 10
129.113503
 20
168.125803
 30
0.0
 10
125.913507
 20
168.125803
 30
0.0
 10
125.913507
 20
179.859136
 30
0.0
 10
129.113503
 20
179.859136
 30
0.0
  0
LWPOLYLINE
  5
102
100
AcDbEntity
  8
0
 62
7
100
AcDbPolyline
 90
28
 70
1
 10
52.407782
 20
144.565807
 30
0.0
 10
3.341115
 20
144.565807
 30
0.0
 10
3.341115
 20
156.299140
 30
0.0
 10
0.141116
 20
156.299140
 30
0.0
 10
0.141116
 20
166.432470
 30
0.0
 10
3.341115
 20
166.432470
 30
0.0
 10
3.341115
 20
178.165802
 30
0.0
 10
0.141116
 20
178.165802
 30
0.0
 10
0.141116
 20
188.299132
 30
0.0
 10
3.341115
 20
188.299132
 30
0.0
 10
3.341115
 20
200.032465
 30
0.0
 10
12.763338
 20
200.032465
 30
0.0
 10
12.763338
 20
196.832485
 30
0.0
 10
24.496670
 20
196.832485
 30
0.0
 10
24.496670
 20
200.032465
 30
0.0
 10
31.252226
 20
200.032465
 30
0.0
 10
31.252226
 20
196.832485
 30
0.0
 10
42.985559
 20
196.832485
 30
0.0
 10
42.985559
 20
200.032465
 30
0.0
 10
52.407782
 20
200.032465
 30
0.0
 10
52.407782
 20
188.299132
 30
0.0
 10
55.607781
 20
188.299132
 30
0.0
 10
55.607781
 20
178.165802
 30
0.0
 10
52.407782
 20
178.165802
 30
0.0
 10
52.407782
 20
166.432470
 30
0.0
 10
55.607781
 20
166.432470
 30
0.0
 10
55.607781
 20
156.299140
 30
0.0
 10
52.407782
 20
156.299140
 30
0.0
  0
LWPOLYLINE
  5
103
100
AcDbEntity
  8
0
 62
7
100
AcDbPolyline
 90
4
 70
1
 10
26.289724
 20
156.299140
 30
0.0
 10
29.489723
 20
156.299140
 30
0.0
 10
29.489723
 20
166.432470
 30
0.0
 10
26.289724
 20
166.432470
 30
0.0
  0
LWPOLYLINE
  5
104
100
AcDbEntity
  8
0
 62
7
100
AcDbPolyline
 90
4
 70
1
 10
26.289724
 20
178.165802
 30
0.0
 10
29.489723
 20
178.165802
 30
0.0
 10
29.489723
 20
188.299132
 30
0.0
 10
26.289724
 20
188.299132
 30
0.0
  0
LWPOLYLINE
  5
105
100
AcDbEntity
  8
0
 62
7
100
AcDbPolyline
 90
4
 70
1
 10
38.160163
 20
156.299140
 30
0.0
 10
41.360162
 20
156.299140
 30
0.0
 10
41.360162
 20
166.432470
 30
0.0
 10
38.160163
 20
166.432470
 30
0.0
  0
LWPOLYLINE
  5
106
100
AcDbEntity
  8
0
 62
7
100
AcDbPolyline
 90
4
 70
1
 10
38.160163
 20
178.165802
 30
0.0
 10
41.360162
 20
178.165802
 30
0.0
 10
41.360162
 20
188.299132
 30
0.0
 10
38.160163
 20
188.299132
 30
0.0
  0
LWPOLYLINE
  5
107
100
AcDbEntity
  8
0
 62
7
100
AcDbPolyline
 90
4
 70
1
 10
14.388736
 20
156.299140
 30
0.0
 10
17.588735
 20
156.299140
 30
0.0
 10
17.588735
 20
166.432470
 30
0.0
 10
14.388736
 20
166.432470
 30
0.0
  0
LWPOLYLINE
  5
108
100
AcDbEntity
  8
0
 62
7
100
AcDbPolyline
 90
4
 70
1
 10
14.388736
 20
178.165802
 30
0.0
 10
17.588735
 20
178.165802
 30
0.0
 10
17.588735
 20
188.299132
 30
0.0
 10
14.388736
 20
188.299132
 30
0.0
  0
LWPOLYLINE
  5
109
100
AcDbEntity
  8
0
 62
7
100
AcDbPolyline
 90
4
 70
1
 10
238.682011
 20
248.468013
 30
0.0
 10
235.482011
 20
248.468013
 30
0.0
 10
235.482011
 20
238.334683
 30
0.0
 10
238.682011
 20
238.334683
 30
0.0
  0
LWPOLYLINE
  5
10a
100
AcDbEntity
  8
0
 62
7
100
AcDbPolyline
 90
4
 70
1
 10
238.682011
 20
226.601347
 30
0.0
 10
235.482011
 20
226.601347
 30
0.0
 10
235.482011
 20
216.468020
 30
0.0
 10
238.682011
 20
216.468020
 30
0.0
  0
LWPOLYLINE
  5
10b
100
AcDbEntity
  8
0
 62
7
100
AcDbPolyline
 90
4
 70
1
 10
226.811572
 20
248.468013
 30
0.0
 10
223.611573
 20
248.468013
 30
0.0
 10
223.611573
 20
238.334683
 30
0.0
 10
226.811572
 20
238.334683
 30
0.0
  0
LWPOLYLINE
  5
10c
100
AcDbEntity
  8
0
 62
7
100
AcDbPolyline
 90
4
 70
1
 10
226.811572
 20
226.601347
 30
0.0
 10
223.611573
 20
226.601347
 30
0.0
 10
223.611573
 20
216.468020
 30
0.0
 10
226.811572
 20
216.468020
 30
0.0
  0
LWPOLYLINE
  5
10d
100
AcDbEntity
  8
0
 62
7
100
AcDbPolyline
 90
4
 70
1
 10
214.910583
 20
248.468013
 30
0.0
 10
211.710583
 20
248.468013
 30
0.0
 10
211.710583
 20
238.334683
 30
0.0
 10
214.910583
 20
238.334683
 30
0.0
  0
LWPOLYLINE
  5
10e
100
AcDbEntity
  8
0
 62
7
100
AcDbPolyline
 90
4
 70
1
 10
214.910583
 20
226.601347
 30
0.0
 10
211.710583
 20
226.601347
 30
0.0
 10
211.710583
 20
216.468020
 30
0.0
 10
214.910583
 20
216.468020
 30
0.0
  0
LWPOLYLINE
  5
10f
100
AcDbEntity
  8
0
 62
7
100
AcDbPolyline
 90
20
 70
1
 10
249.729622
 20
260.201345
 30
0.0
 10
249.729622
 20
248.468013
 30
0.0
 10
252.929627
 20
248.468013
 30
0.0
 10
252.929627
 20
238.334683
 30
0.0
 10
249.729622
 20
238.334683
 30
0.0
 10
249.729622
 20
226.601347
 30
0.0
 10
252.929627
 20
226.601347
 30
0.0
 10
252.929627
 20
216.468020
 30
0.0
 10
249.729622
 20
216.468020
 30
0.0
 10
249.729622
 20
204.734685
 30
0.0
 10
200.662963
 20
204.734685
 30
0.0
 10
200.662963
 20
216.468020
 30
0.0
 10
197.462964
 20
216.468020
 30
0.0
 10
197.462964
 20
226.601347
 30
0.0
 10
200.662963
 20
226.601347
 30
0.0
 10
200.662963
 20
238.334683
 30
0.0
 10
197.462964
 20
238.334683
 30
0.0
 10
197.462964
 20
248.468013
 30
0.0
 10
200.662963
 20
248.468013
 30
0.0
 10
200.662963
 20
260.201345
 30
0.0
  0
LWPOLYLINE
  5
110
100
AcDbEntity
  8
0
 62
7
100
AcDbPolyline
 90
32
 70
1
 10
192.005187
 20
226.036906
 30
0.0
 10
195.205186
 20
226.036906
 30
0.0
 10
195.205186
 20
215.903576
 30
0.0
 10
192.005187
 20
215.903576
 30
0.0
 10
192.005187
 20
207.370245
 30
0.0
 10
182.676659
 20
207.370245
 30
0.0
 10
182.676659
 20
247.903594
 30
0.0
 10
179.476657
 20
247.903594
 30
0.0
 10
179.476657
 20
207.370245
 30
0.0
 10
166.829037
 20
207.370245
 30
0.0
 10
166.829037
 20
247.903594
 30
0.0
 10
163.629038
 20
247.903594
 30
0.0
 10
163.629038
 20
207.370245
 30
0.0
 10
149.067049
 20
207.370245
 30
0.0
 10
149.067049
 20
247.903594
 30
0.0
 10
145.867049
 20
247.903594
 30
0.0
 10
145.867049
 20
207.370245
 30
0.0
 10
136.538510
 20
207.370245
 30
0.0
 10
136.538510
 20
215.903576
 30
0.0
 10
133.338533
 20
215.903576
 30
0.0
 10
133.338533
 20
226.036906
 30
0.0
 10
136.538510
 20
226.036906
 30
0.0
 10
136.538510
 20
237.770238
 30
0.0
 10
133.338533
 20
237.770238
 30
0.0
 10
133.338533
 20
247.903594
 30
0.0
 10
136.538510
 20
247.903594
 30
0.0
 10
136.538510
 20
259.636926
 30
0.0
 10
192.005187
 20
259.636926
 30
0.0
 10
192.005187
 20
247.903594
 30
0.0
 10
195.205186
 20
247.903594
 30
0.0
 10
195.205186
 20
237.770238
 30
0.0
 10
192.005187
 20
237.770238
 30
0.0
  0
LWPOLYLINE
  5
111
100
AcDbEntity
  8
0
 62
7
100
AcDbPolyline
 90
32
 70
1
 10
129.824610
 20
215.578882
 30
0.0
 10
126.624605
 20
215.578882
 30
0.0
 10
126.624605
 20
207.045551
 30
0.0
 10
117.296088
 20
207.045551
 30
0.0
 10
117.296088
 20
247.578900
 30
0.0
 10
114.096083
 20
247.578900
 30
0.0
 10
114.096083
 20
207.045551
 30
0.0
 10
101.448464
 20
207.045551
 30
0.0
 10
101.448464
 20
247.578900
 30
0.0
 10
98.248459
 20
247.578900
 30
0.0
 10
98.248459
 20
207.045551
 30
0.0
 10
83.686469
 20
207.045551
 30
0.0
 10
83.686469
 20
247.578900
 30
0.0
 10
80.486464
 20
247.578900
 30
0.0
 10
80.486464
 20
207.045551
 30
0.0
 10
71.157948
 20
207.045551
 30
0.0
 10
71.157948
 20
215.578882
 30
0.0
 10
67.957943
 20
215.578882
 30
0.0
 10
67.957943
 20
225.712212
 30
0.0
 10
71.157948
 20
225.712212
 30
0.0
 10
71.157948
 20
237.445544
 30
0.0
 10
67.957943
 20
237.445544
 30
0.0
 10
67.957943
 20
247.578900
 30
0.0
 10
71.157948
 20
247.578900
 30
0.0
 10
71.157948
 20
259.312232
 30
0.0
 10
126.624605
 20
259.312232
 30
0.0
 10
126.624605
 20
247.578900
 30
0.0
 10
129.824610
 20
247.578900
 30
0.0
 10
129.824610
 20
237.445544
 30
0.0
 10
126.624605
 20
237.445544
 30
0.0
 10
126.624605
 20
225.712212
 30
0.0
 10
129.824610
 20
225.712212
 30
0.0
  0
LWPOLYLINE
  5
112
100
AcDbEntity
  8
0
 62
7
100
AcDbPolyline
 90
32
 70
1
 10
0.141111
 20
245.459126
 30
0.0
 10
3.341115
 20
245.459126
 30
0.0
 10
3.341115
 20
253.992482
 30
0.0
 10
12.669633
 20
253.992482
 30
0.0
 10
12.669633
 20
213.459133
 30
0.0
 10
15.869638
 20
213.459133
 30
0.0
 10
15.869638
 20
253.992482
 30
0.0
 10
28.517257
 20
253.992482
 30
0.0
 10
28.517257
 20
213.459133
 30
0.0
 10
31.717262
 20
213.459133
 30
0.0
 10
31.717262
 20
253.992482
 30
0.0
 10
46.279252
 20
253.992482
 30
0.0
 10
46.279252
 20
213.459133
 30
0.0
 10
49.479256
 20
213.459133
 30
0.0
 10
49.479256
 20
253.992482
 30
0.0
 10
58.807773
 20
253.992482
 30
0.0
 10
58.807773
 20
245.459126
 30
0.0
 10
62.007778
 20
245.459126
 30
0.0
 10
62.007778
 20
235.325796
 30
0.0
 10
58.807773
 20
235.325796
 30
0.0
 10
58.807773
 20
223.592460
 30
0.0
 10
62.007778
 20
223.592460
 30
0.0
 10
62.007778
 20
213.459133
 30
0.0
 10
58.807773
 20
213.459133
 30
0.0
 10
58.807773
 20
201.725798
 30
0.0
 10
3.341115
 20
201.725798
 30
0.0
 10
3.341115
 20
213.459133
 30
0.0
 10
0.141111
 20
213.459133
 30
0.0
 10
0.141111
 20
223.592460
 30
0.0
 10
3.341115
 20
223.592460
 30
0.0
 10
3.341115
 20
235.325796
 30
0.0
 10
0.141111
 20
235.325796
 30
0.0
  0
LWPOLYLINE
  5
113
100
AcDbEntity
  8
0
 62
7
100
AcDbPolyline
 90
40
 70
1
 10
210.882998
 20
276.125562
 30
0.0
 10
210.882998
 20
264.392232
 30
0.0
 10
202.276687
 20
264.392232
 30
0.0
 10
202.276687
 20
276.125562
 30
0.0
 10
199.076683
 20
276.125562
 30
0.0
 10
199.076683
 20
264.392232
 30
0.0
 10
190.375715
 20
264.392232
 30
0.0
 10
190.375715
 20
276.125562
 30
0.0
 10
187.175710
 20
276.125562
 30
0.0
 10
187.175710
 20
264.392232
 30
0.0
 10
176.128093
 20
264.392232
 30
0.0
 10
176.128093
 20
276.125562
 30
0.0
 10
172.928088
 20
276.125562
 30
0.0
 10
172.928088
 20
286.258892
 30
0.0
 10
176.128093
 20
286.258892
 30
0.0
 10
176.128093
 20
297.992224
 30
0.0
 10
172.928088
 20
297.992224
 30
0.0
 10
172.928088
 20
308.125556
 30
0.0
 10
176.128093
 20
308.125556
 30
0.0
 10
176.128093
 20
319.858889
 30
0.0
 10
185.550308
 20
319.858889
 30
0.0
 10
185.550308
 20
316.658911
 30
0.0
 10
197.283640
 20
316.658911
 30
0.0
 10
197.283640
 20
319.858889
 30
0.0
 10
204.039193
 20
319.858889
 30
0.0
 10
204.039193
 20
316.658911
 30
0.0
 10
215.772526
 20
316.658911
 30
0.0
 10
215.772526
 20
319.858889
 30
0.0
 10
225.194741
 20
319.858889
 30
0.0
 10
225.194741
 20
308.125556
 30
0.0
 10
228.394745
 20
308.125556
 30
0.0
 10
228.394745
 20
297.992224
 30
0.0
 10
225.194741
 20
297.992224
 30
0.0
 10
225.194741
 20
286.258892
 30
0.0
 10
228.394745
 20
286.258892
 30
0.0
 10
228.394745
 20
276.125562
 30
0.0
 10
225.194741
 20
276.125562
 30
0.0
 10
225.194741
 20
264.392232
 30
0.0
 10
214.083003
 20
264.392232
 30
0.0
 10
214.083003
 20
276.125562
 30
0.0
  0
LWPOLYLINE
  5
114
100
AcDbEntity
  8
0
 62
7
100
AcDbPolyline
 90
40
 70
1
 10
155.289352
 20
264.392232
 30
0.0
 10
155.289352
 20
276.125562
 30
0.0
 10
152.089347
 20
276.125562
 30
0.0
 10
152.089347
 20
264.392232
 30
0.0
 10
143.418916
 20
264.392232
 30
0.0
 10
143.418916
 20
276.125562
 30
0.0
 10
140.218911
 20
276.125562
 30
0.0
 10
140.218911
 20
264.392232
 30
0.0
 10
131.517943
 20
264.392232
 30
0.0
 10
131.517943
 20
276.125562
 30
0.0
 10
128.317938
 20
276.125562
 30
0.0
 10
128.317938
 20
264.392232
 30
0.0
 10
117.270321
 20
264.392232
 30
0.0
 10
117.270321
 20
276.125562
 30
0.0
 10
114.070316
 20
276.125562
 30
0.0
 10
114.070316
 20
286.258892
 30
0.0
 10
117.270321
 20
286.258892
 30
0.0
 10
117.270321
 20
297.992224
 30
0.0
 10
114.070316
 20
297.992224
 30
0.0
 10
114.070316
 20
308.125556
 30
0.0
 10
117.270321
 20
308.125556
 30
0.0
 10
117.270321
 20
319.858889
 30
0.0
 10
126.692536
 20
319.858889
 30
0.0
 10
126.692536
 20
316.658911
 30
0.0
 10
138.425868
 20
316.658911
 30
0.0
 10
138.425868
 20
319.858889
 30
0.0
 10
145.181422
 20
319.858889
 30
0.0
 10
145.181422
 20
316.658911
 30
0.0
 10
156.914754
 20
316.658911
 30
0.0
 10
156.914754
 20
319.858889
 30
0.0
 10
166.336969
 20
319.858889
 30
0.0
 10
166.336969
 20
308.125556
 30
0.0
 10
169.536974
 20
308.125556
 30
0.0
 10
169.536974
 20
297.992224
 30
0.0
 10
166.336969
 20
297.992224
 30
0.0
 10
166.336969
 20
286.258892
 30
0.0
 10
169.536974
 20
286.258892
 30
0.0
 10
169.536974
 20
276.125562
 30
0.0
 10
166.336969
 20
276.125562
 30
0.0
 10
166.336969
 20
264.392232
 30
0.0
  0
LWPOLYLINE
  5
115
100
AcDbEntity
  8
0
 62
7
100
AcDbPolyline
 90
40
 70
1
 10
96.431563
 20
264.392232
 30
0.0
 10
96.431563
 20
276.125562
 30
0.0
 10
93.231558
 20
276.125562
 30
0.0
 10
93.231558
 20
264.392232
 30
0.0
 10
84.561127
 20
264.392232
 30
0.0
 10
84.561127
 20
276.125562
 30
0.0
 10
81.361122
 20
276.125562
 30
0.0
 10
81.361122
 20
264.392232
 30
0.0
 10
72.660154
 20
264.392232
 30
0.0
 10
72.660154
 20
276.125562
 30
0.0
 10
69.460150
 20
276.125562
 30
0.0
 10
69.460150
 20
264.392232
 30
0.0
 10
58.412532
 20
264.392232
 30
0.0
 10
58.412532
 20
276.125562
 30
0.0
 10
55.212528
 20
276.125562
 30
0.0
 10
55.212528
 20
286.258892
 30
0.0
 10
58.412532
 20
286.258892
 30
0.0
 10
58.412532
 20
297.992224
 30
0.0
 10
55.212528
 20
297.992224
 30
0.0
 10
55.212528
 20
308.125556
 30
0.0
 10
58.412532
 20
308.125556
 30
0.0
 10
58.412532
 20
319.858889
 30
0.0
 10
67.834747
 20
319.858889
 30
0.0
 10
67.834747
 20
316.658911
 30
0.0
 10
79.568080
 20
316.658911
 30
0.0
 10
79.568080
 20
319.858889
 30
0.0
 10
86.323633
 20
319.858889
 30
0.0
 10
86.323633
 20
316.658911
 30
0.0
 10
98.056965
 20
316.658911
 30
0.0
 10
98.056965
 20
319.858889
 30
0.0
 10
107.479180
 20
319.858889
 30
0.0
 10
107.479180
 20
308.125556
 30
0.0
 10
110.679185
 20
308.125556
 30
0.0
 10
110.679185
 20
297.992224
 30
0.0
 10
107.479180
 20
297.992224
 30
0.0
 10
107.479180
 20
286.258892
 30
0.0
 10
110.679185
 20
286.258892
 30
0.0
 10
110.679185
 20
276.125562
 30
0.0
 10
107.479180
 20
276.125562
 30
0.0
 10
107.479180
 20
264.392232
 30
0.0
  0
LWPOLYLINE
  5
116
100
AcDbEntity
  8
0
 62
7
100
AcDbPolyline
 90
44
 70
1
 10
49.207786
 20
307.330367
 30
0.0
 10
39.785571
 20
307.330367
 30
0.0
 10
39.785571
 20
304.130362
 30
0.0
 10
49.207786
 20
304.130362
 30
0.0
 10
49.207786
 20
291.482744
 30
0.0
 10
39.785571
 20
291.482744
 30
0.0
 10
39.785571
 20
288.282736
 30
0.0
 10
49.207786
 20
288.282736
 30
0.0
 10
49.207786
 20
273.720747
 30
0.0
 10
39.785571
 20
273.720747
 30
0.0
 10
39.785571
 20
270.520770
 30
0.0
 10
49.207786
 20
270.520770
 30
0.0
 10
49.207786
 20
261.192228
 30
0.0
 10
39.785571
 20
261.192228
 30
0.0
 10
39.785571
 20
257.992220
 30
0.0
 10
28.052239
 20
257.992220
 30
0.0
 10
28.052239
 20
261.192228
 30
0.0
 10
21.296685
 20
261.192228
 30
0.0
 10
21.296685
 20
257.992220
 30
0.0
 10
9.563353
 20
257.992220
 30
0.0
 10
9.563353
 20
261.192228
 30
0.0
 10
0.141111
 20
261.192228
 30
0.0
 10
0.141111
 20
270.520770
 30
0.0
 10
9.563353
 20
270.520770
 30
0.0
 10
9.563353
 20
273.720747
 30
0.0
 10
0.141111
 20
273.720747
 30
0.0
 10
0.141111
 20
288.282736
 30
0.0
 10
9.563353
 20
288.282736
 30
0.0
 10
9.563353
 20
291.482744
 30
0.0
 10
0.141111
 20
291.482744
 30
0.0
 10
0.141111
 20
304.130362
 30
0.0
 10
9.563353
 20
304.130362
 30
0.0
 10
9.563353
 20
307.330367
 30
0.0
 10
0.141111
 20
307.330367
 30
0.0
 10
0.141111
 20
316.658885
 30
0.0
 10
9.563353
 20
316.658885
 30
0.0
 10
9.563353
 20
319.858889
 30
0.0
 10
21.296685
 20
319.858889
 30
0.0
 10
21.296685
 20
316.658885
 30
0.0
 10
28.052239
 20
316.658885
 30
0.0
 10
28.052239
 20
319.858889
 30
0.0
 10
39.785571
 20
319.858889
 30
0.0
 10
39.785571
 20
316.658885
 30
0.0
 10
49.207786
 20
316.658885
 30
0.0
  0
LWPOLYLINE
  5
117
100
AcDbEntity
  8
0
 62
7
100
AcDbPolyline
 90
4
 70
1
 10
21.296685
 20
304.130362
 30
0.0
 10
28.052239
 20
304.130362
 30
0.0
 10
28.052239
 20
307.330367
 30
0.0
 10
21.296685
 20
307.330367
 30
0.0
  0
LWPOLYLINE
  5
118
100
AcDbEntity
  8
0
 62
7
100
AcDbPolyline
 90
4
 70
1
 10
21.296685
 20
288.282736
 30
0.0
 10
28.052239
 20
288.282736
 30
0.0
 10
28.052239
 20
291.482744
 30
0.0
 10
21.296685
 20
291.482744
 30
0.0
  0
LWPOLYLINE
  5
119
100
AcDbEntity
  8
0
 62
7
100
AcDbPolyline
 90
4
 70
1
 10
28.052239
 20
273.720747
 30
0.0
 10
21.296685
 20
273.720747
 30
0.0
 10
21.296685
 20
270.520770
 30
0.0
 10
28.052239
 20
270.520770
 30
0.0
  0
ENDSEC
  0
SECTION
  2
OBJECTS
  0
DICTIONARY
  5
C
330
0
100
AcDbDictionary
  3
ACAD_GROUP
350
D
  3
ACAD_MLINESTYLE
350
17
  0
DICTIONARY
  5
D
330
C
100
AcDbDictionary
  0
DICTIONARY
  5
1A
330
C
100
AcDbDictionary
  0
DICTIONARY
  5
17
330
C
100
AcDbDictionary
  3
STANDARD
350
18
  0
DICTIONARY
  5
19
330
C
100
AcDbDictionary
  0
ENDSEC
  0
EOF
